<svg width="222" height="28" viewBox="0 0 222 28" fill="none" xmlns="http://www.w3.org/2000/svg">
<path d="M20.0568 13.8196C19.2959 13.1697 18.4334 12.6494 17.5036 12.2796C16.3782 11.8305 15.214 11.4852 14.0257 11.248L10.3157 10.4633C9.75846 10.3578 9.21122 10.2049 8.67993 10.0064C8.3588 9.89103 8.05791 9.72566 7.78835 9.51642C7.6198 9.39468 7.4915 9.22532 7.41993 9.03011C7.37511 8.83952 7.35774 8.6435 7.36835 8.448C7.37251 8.18744 7.41091 7.92856 7.48256 7.678C7.56618 7.40058 7.72876 7.15351 7.95046 6.96695C8.28919 6.70688 8.67612 6.51655 9.08888 6.40695C9.78107 6.23302 10.4939 6.15492 11.2073 6.17485C12.0992 6.17017 12.9893 6.25658 13.8636 6.43274C14.6157 6.58164 15.3549 6.78983 16.0741 7.05537C16.6397 7.26852 17.1797 7.54408 17.6841 7.87695C17.8751 7.99867 18.0595 8.13025 18.2368 8.27116C18.2579 8.28773 18.2823 8.29958 18.3083 8.30594C18.3344 8.31229 18.3615 8.313 18.3878 8.308C18.4145 8.3023 18.4396 8.29075 18.4612 8.27419C18.4829 8.25762 18.5006 8.23646 18.5131 8.21221L21.0294 3.37853C21.0515 3.34221 21.0606 3.29948 21.0552 3.25733C21.0499 3.21517 21.0304 3.17608 20.9999 3.14642C19.8947 2.31379 16.7926 0.368529 11.1189 0.368529C9.60882 0.340626 8.10468 0.564753 6.66835 1.03169C5.50421 1.41523 4.42917 2.02918 3.5073 2.83695C2.68841 3.57988 2.04961 4.49966 1.6394 5.52642C1.2324 6.57659 1.02619 7.69384 1.03151 8.82011C1.00026 9.99636 1.25301 11.1628 1.76835 12.2206C2.2133 13.0958 2.84159 13.8648 3.61046 14.4754C4.37781 15.0704 5.23961 15.5325 6.15993 15.8422C7.08182 16.1591 8.02648 16.4054 8.98572 16.5791L12.5557 17.2496C13.7531 17.467 14.5747 17.758 15.0057 18.1227C15.204 18.2821 15.363 18.4849 15.4703 18.7156C15.5776 18.9462 15.6305 19.1984 15.6247 19.4527C15.6256 19.7308 15.5807 20.0071 15.492 20.2706C15.3938 20.5474 15.2074 20.7843 14.9615 20.9448C14.5896 21.1926 14.1728 21.3653 13.7347 21.4533C13.008 21.6048 12.2662 21.6716 11.5241 21.6522C10.4732 21.6676 9.4236 21.5725 8.39256 21.3685C7.51887 21.1904 6.65746 20.9566 5.81361 20.6685C5.18145 20.4576 4.56574 20.2002 3.97151 19.8985C3.6529 19.7429 3.34949 19.5578 3.06519 19.3459C3.03414 19.3135 2.9921 19.2937 2.9473 19.2906C2.91896 19.2957 2.89219 19.3073 2.86916 19.3246C2.84613 19.3419 2.82746 19.3643 2.81467 19.3901L0.386772 24.3159C0.370279 24.3492 0.364266 24.3868 0.369527 24.4236C0.374788 24.4605 0.391076 24.4948 0.416246 24.5222C0.749013 24.8096 1.12121 25.0478 1.52151 25.2296C2.28059 25.6277 3.06592 25.9736 3.87204 26.2648C4.96931 26.6668 6.09484 26.987 7.2394 27.2227C8.6309 27.5076 10.0486 27.6447 11.4689 27.6317C14.8362 27.6317 17.4815 26.8948 19.3347 25.3954C21.1878 23.8959 22.1494 21.7996 22.1494 19.1322C22.1738 18.0806 21.9975 17.0341 21.6299 16.0485C21.2901 15.1911 20.7509 14.427 20.0568 13.8196Z" fill="#153C65"/>
<path d="M44.8147 4.20728C43.4808 3.05179 41.9213 2.18612 40.2352 1.66518C38.3066 1.07501 36.2983 0.786686 34.2815 0.810439C31.5543 0.813552 28.8313 1.02292 26.1357 1.43675C26.0924 1.44451 26.0533 1.46719 26.025 1.50085C25.9967 1.53451 25.9811 1.57701 25.981 1.62096V26.6294C25.9806 26.6708 25.9942 26.7112 26.0196 26.744C26.045 26.7767 26.0807 26.8 26.121 26.8099C26.1615 26.8099 26.2757 26.8504 28.0183 27.0162C29.1752 27.1268 31.0947 27.182 33.7252 27.182C35.9279 27.2184 38.1233 26.9177 40.2352 26.2904C41.9732 25.7746 43.5818 24.8956 44.9547 23.7115C46.2269 22.5621 47.2092 21.1279 47.821 19.5262C48.4841 17.7439 48.8089 15.8535 48.7789 13.952C48.8129 12.0304 48.4622 10.1213 47.7473 8.33728C47.0925 6.75773 46.0901 5.34607 44.8147 4.20728ZM42.2873 13.9594C42.3119 15.0663 42.1256 16.1679 41.7383 17.2052C41.4106 18.0617 40.8825 18.8272 40.1983 19.4378C39.5018 20.0365 38.6834 20.4764 37.7999 20.7273C36.7813 21.0148 35.7267 21.155 34.6683 21.1436C34.0015 21.1436 33.4231 21.1436 32.9515 21.0883C32.6125 21.0625 32.3583 21.0368 32.1925 21.0183V6.81939C32.3031 6.81939 32.4983 6.78623 32.8631 6.75675C33.3457 6.7236 34.0494 6.70518 34.9483 6.70518C36.0639 6.68175 37.1742 6.86409 38.2236 7.24307C39.0856 7.56506 39.863 8.0791 40.4968 8.74623C41.1074 9.40802 41.5664 10.1951 41.8415 11.0525C42.1437 11.9916 42.2942 12.9729 42.2873 13.9594Z" fill="#153C65"/>
<path d="M65.7962 2.9477C65.0815 1.15717 63.5378 0.516117 61.6662 1.23454C61.6189 1.25264 61.5759 1.28031 61.5397 1.31581C61.5036 1.35131 61.4752 1.39388 61.4562 1.44085L51.5789 26.2651C51.5566 26.321 51.5484 26.3815 51.5549 26.4413C51.5614 26.5012 51.5825 26.5585 51.6163 26.6083C51.6501 26.6581 51.6956 26.6989 51.7488 26.727C51.802 26.7552 51.8613 26.7699 51.9215 26.7698H54.132C54.2058 26.7699 54.2779 26.7478 54.339 26.7064C54.4001 26.665 54.4474 26.6062 54.4747 26.5377L57.2562 19.4677H68.8247L71.6026 26.5266C71.6293 26.5959 71.6763 26.6554 71.7374 26.6975C71.7986 26.7396 71.871 26.7622 71.9452 26.7624H74.7341C74.7945 26.7625 74.8539 26.7478 74.9073 26.7195C74.9606 26.6913 75.0061 26.6503 75.0399 26.6003C75.0742 26.5501 75.0954 26.4922 75.1019 26.4318C75.1083 26.3714 75.0997 26.3103 75.0768 26.254L65.7962 2.9477ZM67.7157 16.6235H58.3726L63.0515 4.73822L67.7157 16.6235Z" fill="#153C65"/>
<path d="M90.8378 17.9973C90.284 17.5176 89.6472 17.143 88.9588 16.8921C88.0591 16.5523 87.1213 16.3234 86.1662 16.2105L82.4378 15.7684C81.5936 15.7019 80.7787 15.4286 80.0652 14.9726C79.8175 14.7881 79.6203 14.5442 79.4915 14.2636C79.3628 13.9829 79.3066 13.6743 79.3283 13.3663C79.304 12.9701 79.4005 12.5759 79.6051 12.2358C79.8097 11.8956 80.1127 11.6257 80.4741 11.4615C81.5698 10.9918 82.7573 10.7752 83.9483 10.8278C84.7575 10.8186 85.5653 10.8964 86.3578 11.0599C86.969 11.1921 87.568 11.3757 88.1483 11.6089C88.5495 11.7714 88.9334 11.9738 89.2941 12.2131C89.4267 12.3015 89.5336 12.3863 89.622 12.4526C89.6634 12.4845 89.711 12.5072 89.7618 12.5193C89.8127 12.5313 89.8654 12.5325 89.9167 12.5226C89.9686 12.5125 90.0175 12.4906 90.0597 12.4587C90.1018 12.4268 90.1361 12.3856 90.1599 12.3384L91.0846 10.5773C91.121 10.503 91.1314 10.4187 91.114 10.3378C91.0966 10.257 91.0525 10.1843 90.9888 10.1315C90.252 9.5531 88.1225 8.21574 83.9888 8.21574C82.8053 8.19041 81.6243 8.33432 80.4815 8.6431C79.6186 8.86981 78.8104 9.26829 78.1052 9.81468C77.5377 10.2689 77.091 10.8561 76.8046 11.5242C76.5574 12.1427 76.4322 12.8033 76.4362 13.4694C76.4113 14.1305 76.5343 14.7887 76.7963 15.3962C77.0583 16.0036 77.4526 16.5449 77.9504 16.9805C78.9304 17.8278 80.3562 18.3694 82.1873 18.5831L85.6246 18.9957C87.0762 19.1726 88.0562 19.4857 88.5388 19.9242C88.778 20.1459 88.965 20.4178 89.0867 20.7203C89.2084 21.0229 89.2616 21.3486 89.2425 21.6742C89.2597 22.0895 89.145 22.4997 88.9146 22.8457C88.6659 23.1864 88.3385 23.4619 87.9604 23.6489C87.4889 23.8872 86.9829 24.0501 86.4609 24.1315C85.8312 24.2336 85.1941 24.2829 84.5562 24.2789C83.7118 24.286 82.8688 24.2083 82.0399 24.0468C81.3569 23.9125 80.6837 23.7328 80.0246 23.5089C79.5407 23.345 79.0681 23.1493 78.6099 22.9231L77.8473 22.5289C77.7631 22.4856 77.6654 22.4764 77.5746 22.5031C77.4831 22.532 77.4064 22.5954 77.3609 22.6799L76.4436 24.4373C76.4067 24.5124 76.3964 24.5978 76.4145 24.6795C76.4325 24.7612 76.4779 24.8343 76.543 24.8868C76.7982 25.0624 77.0667 25.2176 77.3462 25.351C77.8962 25.628 78.4694 25.8561 79.0594 26.0326C79.8625 26.2829 80.6793 26.4871 81.5057 26.6442C82.5216 26.8409 83.5546 26.9359 84.5894 26.9278C85.6885 26.948 86.7849 26.8128 87.8462 26.5263C88.7066 26.2957 89.5172 25.9085 90.2373 25.3842C90.8649 24.9233 91.3708 24.3162 91.7109 23.6157C92.0485 22.9151 92.22 22.146 92.212 21.3684C92.2194 20.7402 92.1121 20.1159 91.8951 19.5263C91.667 18.941 91.3049 18.4173 90.8378 17.9973Z" fill="#153C65"/>
<path d="M117.239 2.57924C117.063 2.21742 116.79 1.91138 116.45 1.69489C116.111 1.4784 115.718 1.35987 115.316 1.3524C115.039 1.34717 114.765 1.40099 114.511 1.51026C114.256 1.61953 114.029 1.78175 113.842 1.98608C113.649 2.18708 113.497 2.42428 113.395 2.68411C113.293 2.94394 113.243 3.2213 113.249 3.50029C113.245 3.91327 113.353 4.31959 113.561 4.67628C113.769 5.03297 114.07 5.32677 114.432 5.52661C114.459 5.54595 114.491 5.55971 114.524 5.56714C114.773 5.64684 115.032 5.68784 115.294 5.68871C115.571 5.68929 115.845 5.6319 116.099 5.52024C116.353 5.40858 116.58 5.2451 116.767 5.04029C117.058 4.73165 117.257 4.34901 117.344 3.93437C117.431 3.51973 117.403 3.08911 117.261 2.68977C117.258 2.65214 117.251 2.61501 117.239 2.57924Z" fill="#153C65"/>
<path d="M116.414 8.72461H114.251C114.054 8.72461 113.894 8.88461 113.894 9.08198V26.1141C113.894 26.3115 114.054 26.4715 114.251 26.4715H116.414C116.611 26.4715 116.771 26.3115 116.771 26.1141V9.08198C116.771 8.88461 116.611 8.72461 116.414 8.72461Z" fill="#153C65"/>
<path d="M149.303 23.4724C149.25 23.3918 149.168 23.335 149.074 23.314C148.98 23.2961 148.882 23.3159 148.802 23.3693C148.408 23.6168 147.991 23.8242 147.556 23.9882C147.016 24.2036 146.439 24.3124 145.858 24.3087C145.044 24.3483 144.244 24.0961 143.599 23.5977C143.054 23.1445 142.778 22.3193 142.778 21.1477V11.5098H147.652C147.75 11.5098 147.844 11.471 147.913 11.4019C147.982 11.3328 148.02 11.2391 148.02 11.1414V9.0819C148.02 8.98419 147.982 8.89048 147.913 8.82139C147.844 8.7523 147.75 8.71348 147.652 8.71348H142.778V4.46559C142.778 4.36788 142.739 4.27417 142.67 4.20508C142.601 4.13598 142.507 4.09717 142.409 4.09717H140.258C140.16 4.09717 140.066 4.13598 139.997 4.20508C139.928 4.27417 139.889 4.36788 139.889 4.46559V21.5272C139.883 22.2561 139.993 22.9814 140.217 23.6751C140.427 24.3181 140.773 24.9086 141.23 25.4066C141.703 25.9103 142.284 26.3007 142.929 26.5487C143.694 26.8335 144.507 26.9711 145.324 26.954C145.913 26.9575 146.502 26.9032 147.081 26.7919C147.564 26.6994 148.036 26.56 148.492 26.3756C148.844 26.2303 149.186 26.0617 149.516 25.8709C149.754 25.7429 149.978 25.5924 150.187 25.4214C150.25 25.3637 150.291 25.2859 150.303 25.2012C150.315 25.1165 150.298 25.0302 150.253 24.9572L149.303 23.4724Z" fill="#153C65"/>
<path d="M164.386 10.0064C162.883 8.83486 160.772 8.2417 158.104 8.2417C155.739 8.2417 154.265 8.77591 153.444 9.2217C153.363 9.26889 153.303 9.34501 153.277 9.43463C153.25 9.52426 153.258 9.62067 153.3 9.70433L154.214 11.447C154.259 11.5287 154.334 11.5901 154.423 11.6189C154.512 11.6476 154.608 11.6415 154.693 11.6017C154.873 11.5059 155.083 11.4138 155.33 11.307C156.239 10.9731 157.203 10.8192 158.171 10.8538C158.906 10.8522 159.639 10.925 160.359 11.0712C160.998 11.1993 161.603 11.4604 162.135 11.8375C162.664 12.2288 163.088 12.7453 163.369 13.3406C163.686 14.0561 163.846 14.8313 163.837 15.6138L163.34 15.5512C162.927 15.5033 162.492 15.4628 162.046 15.4296L160.573 15.3264C158.789 15.1563 156.989 15.2808 155.245 15.6949C154.344 15.9175 153.501 16.328 152.77 16.8996C152.155 17.3941 151.689 18.0479 151.421 18.7896C150.935 20.2193 150.909 21.7655 151.347 23.2106C151.59 23.9532 152.035 24.613 152.633 25.1154C153.398 25.7372 154.286 26.1904 155.238 26.4454C156.644 26.8207 158.097 26.9895 159.552 26.9464C160.914 26.9531 162.275 26.8892 163.631 26.7549C164.821 26.6296 165.749 26.508 166.394 26.3864C166.478 26.3692 166.554 26.3229 166.608 26.2556C166.662 26.1883 166.69 26.1042 166.689 26.018V15.7022C166.685 13.127 165.911 11.2001 164.386 10.0064ZM159.596 24.4449C157.515 24.4449 156.019 24.1649 155.153 23.6196C154.288 23.0743 153.93 22.3043 153.93 21.1806C153.911 20.6189 154.026 20.0608 154.265 19.5522C154.482 19.1327 154.811 18.7818 155.216 18.5391C155.698 18.2598 156.228 18.0713 156.778 17.9828C157.483 17.8671 158.197 17.8117 158.911 17.817C160.134 17.7942 161.357 17.862 162.57 18.0196L163.822 18.2333V24.0396C163.605 24.0912 163.259 24.1612 162.717 24.2606C161.688 24.406 160.65 24.4676 159.611 24.4449H159.596Z" fill="#153C65"/>
<path d="M178.794 8.2085C177.773 8.23235 176.768 8.47719 175.85 8.92619C174.931 9.37519 174.121 10.0177 173.474 10.8095L173.533 9.09639C173.535 9.048 173.527 8.99972 173.51 8.95466C173.492 8.9096 173.465 8.86877 173.43 8.83481C173.362 8.7654 173.27 8.72567 173.172 8.72429H171.013C170.916 8.72429 170.822 8.7631 170.753 8.83219C170.684 8.90129 170.645 8.995 170.645 9.09271V26.1101C170.645 26.2078 170.684 26.3015 170.753 26.3706C170.822 26.4397 170.916 26.4785 171.013 26.4785H173.158C173.255 26.4785 173.349 26.4397 173.418 26.3706C173.487 26.3015 173.526 26.2078 173.526 26.1101V17.3159C173.526 16.2401 173.78 10.8869 178.787 10.8869C183.595 10.8869 183.735 15.5438 183.735 16.078V26.099C183.735 26.1967 183.774 26.2904 183.843 26.3595C183.912 26.4286 184.006 26.4674 184.103 26.4674H186.266C186.364 26.4674 186.457 26.4286 186.527 26.3595C186.596 26.2904 186.634 26.1967 186.634 26.099V15.9674C186.62 13.068 185.603 8.2085 178.794 8.2085Z" fill="#153C65"/>
<path d="M194.213 12.5042C194.741 11.9707 195.384 11.5639 196.092 11.3142C196.869 11.0461 197.687 10.914 198.509 10.9237C199.484 10.8925 200.454 11.0683 201.357 11.4395C201.867 11.6657 202.352 11.9447 202.804 12.2721C202.846 12.3045 202.895 12.3275 202.946 12.3396C202.998 12.3517 203.051 12.3526 203.103 12.3421C203.154 12.3301 203.201 12.3074 203.242 12.2757C203.284 12.2439 203.318 12.2038 203.342 12.1579L204.245 10.4374C204.28 10.3667 204.291 10.2867 204.277 10.2091C204.263 10.1315 204.225 10.0604 204.168 10.0063C203.593 9.4758 201.887 8.24159 198.542 8.24159C197.304 8.23101 196.075 8.44316 194.913 8.8679C193.827 9.26873 192.844 9.90399 192.032 10.7284C191.205 11.5874 190.565 12.6085 190.153 13.7274C189.683 15.0107 189.453 16.3694 189.475 17.7358C189.454 19.0625 189.684 20.3813 190.153 21.6226C190.57 22.7147 191.212 23.7074 192.036 24.5368C192.845 25.3401 193.821 25.9563 194.895 26.3421C196.031 26.7564 197.233 26.9635 198.442 26.9537C199.59 26.9916 200.735 26.8385 201.832 26.5005C202.62 26.2376 203.381 25.8996 204.105 25.4911C204.183 25.4428 204.24 25.3675 204.265 25.2797C204.29 25.1919 204.282 25.0978 204.241 25.0158L203.357 23.3247C203.311 23.2395 203.233 23.1759 203.14 23.1479C203.093 23.1343 203.043 23.1302 202.995 23.1359C202.946 23.1416 202.899 23.1569 202.856 23.1811C202.389 23.4463 201.905 23.6814 201.408 23.8847C200.587 24.1725 199.717 24.2976 198.848 24.2532C198.006 24.2628 197.169 24.1359 196.368 23.8774C195.596 23.6335 194.891 23.2133 194.309 22.6499C193.727 22.0866 193.284 21.3956 193.016 20.6316C192.66 19.646 192.49 18.6029 192.515 17.5553C192.494 16.5369 192.649 15.5225 192.971 14.5563C193.229 13.7893 193.653 13.0886 194.213 12.5042Z" fill="#153C65"/>
<path d="M210.173 19.6518C210.755 19.6518 211.396 19.626 212.096 19.6002C213.633 19.5728 215.162 19.3826 216.658 19.0328C217.698 18.7914 218.688 18.366 219.579 17.7765C220.262 17.3177 220.806 16.6807 221.152 15.9344C221.447 15.222 221.582 14.4535 221.546 13.6834C221.534 12.904 221.367 12.1349 221.053 11.4213C220.734 10.7275 220.261 10.1152 219.671 9.63074C219.02 9.11194 218.267 8.73543 217.461 8.52547C216.487 8.2675 215.479 8.16309 214.473 8.216C213.209 8.24841 211.964 8.53142 210.811 9.04863C209.727 9.53537 208.757 10.2431 207.963 11.1265C207.156 12.0324 206.542 13.0928 206.158 14.2434C205.725 15.5032 205.528 16.8322 205.579 18.1634C205.597 19.496 205.887 20.811 206.43 22.0281C206.91 23.0918 207.614 24.0393 208.493 24.806C209.356 25.5445 210.358 26.102 211.441 26.4455C212.458 26.7674 213.52 26.9277 214.587 26.9207C214.712 26.9207 214.841 26.9207 214.955 26.9207C215.681 26.8994 216.403 26.8081 217.111 26.6481C217.703 26.5103 218.285 26.328 218.85 26.1028C219.303 25.9273 219.74 25.7141 220.158 25.4655C220.426 25.3034 220.636 25.1671 220.821 25.0492C220.894 24.9989 220.947 24.9239 220.969 24.8379C220.991 24.752 220.982 24.6608 220.942 24.5813L220.054 22.8792C220.031 22.8351 219.998 22.7964 219.959 22.7654C219.919 22.7343 219.874 22.7116 219.826 22.6986C219.777 22.6867 219.727 22.6847 219.677 22.693C219.628 22.7012 219.581 22.7194 219.539 22.7465C218.99 23.0899 218.419 23.3964 217.829 23.6639C216.985 24.0313 216.075 24.223 215.154 24.2276C213.356 24.2939 211.872 23.8886 210.755 23.0228C209.707 22.1721 208.993 20.9781 208.74 19.6518C209.263 19.6555 209.728 19.6592 210.173 19.6518ZM211.68 17.1023C211.072 17.1244 210.49 17.1392 209.938 17.1502C209.484 17.1502 209.031 17.1502 208.585 17.1502C208.607 16.4193 208.731 15.695 208.954 14.9986C209.194 14.2271 209.568 13.5038 210.059 12.8618C210.549 12.236 211.167 11.7222 211.872 11.3549C212.662 10.9608 213.531 10.7493 214.414 10.736C214.943 10.715 215.473 10.7496 215.994 10.8392C216.468 10.9214 216.924 11.0834 217.343 11.3181C217.719 11.5338 218.036 11.8403 218.264 12.2097C218.51 12.6454 218.637 13.1385 218.632 13.6392C218.647 14.0618 218.563 14.482 218.385 14.866C218.163 15.2959 217.82 15.6517 217.398 15.8902C216.732 16.2723 216.01 16.5459 215.258 16.7007C214.081 16.949 212.883 17.0835 211.68 17.1023Z" fill="#153C65"/>
<path d="M108.832 17.9973C108.276 17.5184 107.638 17.1439 106.949 16.8921C106.05 16.5527 105.114 16.3238 104.16 16.2105L100.428 15.7684C99.5837 15.7019 98.7688 15.4286 98.0553 14.9726C97.8077 14.7881 97.6104 14.5442 97.4817 14.2636C97.3529 13.9829 97.2968 13.6743 97.3184 13.3663C97.2933 12.9704 97.389 12.5763 97.593 12.2361C97.797 11.8959 98.0995 11.6258 98.4606 11.4615C99.5576 10.9918 100.746 10.7753 101.938 10.8278C102.748 10.8187 103.555 10.8966 104.348 11.0599C104.948 11.1941 105.536 11.3777 106.105 11.6089C106.507 11.7714 106.89 11.9738 107.251 12.2131C107.384 12.3015 107.494 12.3863 107.579 12.4526C107.621 12.4839 107.669 12.506 107.72 12.5173C107.771 12.5286 107.824 12.5288 107.876 12.518C107.927 12.5072 107.975 12.4856 108.017 12.4546C108.06 12.4236 108.095 12.384 108.121 12.3384L109.042 10.5773C109.078 10.503 109.088 10.4187 109.071 10.3378C109.054 10.257 109.009 10.1843 108.946 10.1315C108.209 9.5531 106.079 8.21574 101.946 8.21574C100.762 8.19041 99.5812 8.33432 98.4384 8.6431C97.5899 8.87485 96.7958 9.2731 96.1027 9.81468C95.5366 10.2694 95.0912 10.8565 94.8058 11.5242C94.5509 12.141 94.4194 12.8019 94.419 13.4694C94.3925 14.1307 94.5148 14.7894 94.7769 15.3971C95.0389 16.0048 95.4341 16.5459 95.9332 16.9805C96.9095 17.8278 98.3353 18.3694 100.17 18.5831L103.607 18.9957C105.055 19.1726 106.039 19.4857 106.522 19.9242C106.76 20.1462 106.946 20.4183 107.067 20.7208C107.188 21.0233 107.241 21.3489 107.222 21.6742C107.239 22.0895 107.124 22.4997 106.894 22.8457C106.645 23.1864 106.318 23.4619 105.939 23.6489C105.468 23.8872 104.962 24.0501 104.44 24.1315C103.81 24.2336 103.173 24.2829 102.535 24.2789C101.691 24.2858 100.848 24.2081 100.019 24.0468C99.3346 23.9135 98.66 23.7338 98 23.5089C97.517 23.3457 97.0456 23.15 96.589 22.9231L95.8227 22.5289C95.7385 22.4856 95.6408 22.4764 95.55 22.5031C95.5048 22.5167 95.4629 22.5394 95.4268 22.5698C95.3906 22.6002 95.3611 22.6377 95.34 22.6799L94.4227 24.4373C94.3853 24.512 94.3745 24.5972 94.3919 24.6788C94.4093 24.7605 94.4539 24.8338 94.5184 24.8868C94.7745 25.0629 95.0443 25.2181 95.3253 25.351C95.875 25.6286 96.4483 25.8567 97.0385 26.0326C97.8403 26.2829 98.6559 26.4871 99.4811 26.6442C100.497 26.8407 101.53 26.9358 102.565 26.9278C103.669 26.9499 104.77 26.8147 105.836 26.5263C106.697 26.2964 107.508 25.9092 108.227 25.3842C108.855 24.9233 109.361 24.3162 109.701 23.6157C110.042 22.916 110.214 22.1465 110.206 21.3684C110.214 20.7398 110.105 20.1152 109.885 19.5263C109.657 18.9419 109.296 18.4185 108.832 17.9973Z" fill="#153C65"/>
<path d="M136.113 19.5263C135.884 18.9402 135.522 18.4155 135.056 17.9936C134.502 17.5139 133.865 17.1393 133.177 16.8884C132.277 16.5499 131.339 16.3223 130.384 16.2105L126.656 15.7684C125.811 15.7019 124.996 15.4286 124.283 14.9726C124.035 14.7881 123.838 14.5442 123.709 14.2636C123.581 13.9829 123.524 13.6743 123.546 13.3663C123.522 12.9701 123.618 12.5759 123.823 12.2358C124.027 11.8956 124.33 11.6257 124.692 11.4615C125.788 10.9918 126.975 10.7752 128.166 10.8278C128.975 10.8186 129.783 10.8964 130.576 11.0599C131.187 11.1921 131.786 11.3757 132.366 11.6089C132.767 11.7714 133.151 11.9738 133.512 12.2131C133.641 12.3015 133.751 12.3863 133.84 12.4526C133.881 12.4845 133.929 12.5072 133.98 12.5193C134.03 12.5313 134.083 12.5325 134.135 12.5226C134.186 12.5125 134.235 12.4906 134.277 12.4587C134.32 12.4268 134.354 12.3856 134.378 12.3384L135.302 10.5773C135.339 10.503 135.349 10.4187 135.332 10.3378C135.314 10.257 135.27 10.1843 135.207 10.1315C134.47 9.5531 132.34 8.21574 128.207 8.21574C127.023 8.19041 125.842 8.33432 124.699 8.6431C123.851 8.87485 123.057 9.2731 122.363 9.81468C121.796 10.2689 121.349 10.8561 121.063 11.5242C120.816 12.1429 120.691 12.8034 120.695 13.4694C120.668 14.131 120.791 14.7899 121.054 15.3976C121.317 16.0053 121.713 16.5462 122.212 16.9805C123.189 17.8278 124.615 18.3694 126.446 18.5831L129.887 18.9957C131.335 19.1726 132.315 19.4857 132.797 19.9242C133.036 20.1459 133.223 20.4178 133.345 20.7203C133.467 21.0229 133.52 21.3486 133.501 21.6742C133.518 22.0895 133.403 22.4997 133.173 22.8457C132.921 23.1837 132.595 23.4586 132.219 23.6489C131.747 23.8872 131.241 24.0501 130.719 24.1315C130.09 24.2336 129.452 24.2829 128.815 24.2789C127.97 24.286 127.127 24.2083 126.298 24.0468C125.615 23.9143 124.941 23.7345 124.283 23.5089C123.799 23.345 123.326 23.1493 122.868 22.9231L122.106 22.5289C122.021 22.4856 121.924 22.4764 121.833 22.5031C121.741 22.532 121.665 22.5954 121.619 22.6799L120.702 24.4373C120.665 24.5124 120.655 24.5978 120.673 24.6795C120.691 24.7612 120.736 24.8343 120.801 24.8868C121.049 25.0601 121.309 25.2152 121.579 25.351C122.129 25.6273 122.702 25.8554 123.292 26.0326C124.095 26.2829 124.912 26.4871 125.738 26.6442C126.754 26.8407 127.787 26.9358 128.822 26.9278C129.916 26.9466 131.007 26.8115 132.064 26.5263C132.924 26.2957 133.735 25.9085 134.455 25.3842C135.083 24.9233 135.589 24.3162 135.929 23.6157C136.266 22.9151 136.438 22.146 136.43 21.3684C136.437 20.7402 136.33 20.1159 136.113 19.5263Z" fill="#153C65"/>
</svg>
