<svg width="61" height="48" viewBox="0 0 61 48" fill="none" xmlns="http://www.w3.org/2000/svg">
<path d="M15.3019 41.9584V39.567C15.3163 39.3659 15.2866 39.164 15.2147 38.975C15.1428 38.786 15.0303 38.6141 14.8849 38.4707C14.7395 38.3274 14.5645 38.216 14.3714 38.1438C14.1784 38.0717 13.9718 38.0406 13.7654 38.0525C13.4953 38.0353 13.2255 38.0891 12.984 38.2083C12.7425 38.3274 12.5381 38.5076 12.3923 38.73C12.2594 38.5143 12.0694 38.3375 11.8421 38.2182C11.6148 38.099 11.3588 38.0417 11.101 38.0525C10.8762 38.0415 10.6524 38.0879 10.4517 38.1871C10.251 38.2864 10.0804 38.4351 9.95673 38.6184V38.1481H9.10669V41.9584H9.96486V39.846C9.94631 39.7156 9.95759 39.5829 9.99788 39.4573C10.0382 39.3317 10.1065 39.2164 10.1979 39.1196C10.2893 39.0228 10.4016 38.947 10.5266 38.8975C10.6517 38.8481 10.7864 38.8263 10.9211 38.8337C11.4851 38.8337 11.7712 39.1924 11.7712 39.838V41.9584H12.6294V39.846C12.6122 39.7159 12.6244 39.5837 12.6653 39.4587C12.7061 39.3337 12.7744 39.2189 12.8656 39.1225C12.9567 39.026 13.0684 38.9501 13.1928 38.9002C13.3172 38.8503 13.4513 38.8276 13.5856 38.8337C14.1659 38.8337 14.4438 39.1924 14.4438 39.838V41.9584H15.3019ZM28.003 38.1481H26.6136V36.9923H25.7554V38.1481H24.9626V38.9054H25.7554V40.6432C25.7554 41.5279 26.1069 42.0541 27.1121 42.0541C27.4877 42.0552 27.856 41.953 28.1746 41.7591L27.9295 41.0497C27.7015 41.1823 27.4428 41.2564 27.1775 41.2649C26.7525 41.2649 26.6136 41.0098 26.6136 40.6272V38.9054H28.003V38.1481ZM35.2526 38.0525C35.0453 38.0465 34.8403 38.0952 34.659 38.1934C34.4778 38.2916 34.3271 38.4357 34.2228 38.6105V38.1481H33.3809V41.9584H34.2309V39.8221C34.2309 39.1924 34.5088 38.8416 35.0646 38.8416C35.2464 38.8392 35.4269 38.8717 35.5959 38.9373L35.8574 38.1561C35.6633 38.0883 35.4587 38.0533 35.2526 38.0525ZM24.2924 38.451C23.8113 38.172 23.2581 38.0337 22.6986 38.0525C21.7097 38.0525 21.0722 38.5148 21.0722 39.2721C21.0722 39.8939 21.5462 40.2765 22.4207 40.3961L22.8212 40.4518C23.2871 40.5155 23.5078 40.6351 23.5078 40.8504C23.5078 41.1453 23.1971 41.3128 22.6169 41.3128C22.1501 41.3258 21.6924 41.1854 21.3174 40.9141L20.9169 41.5598C21.412 41.8971 22.0051 42.0703 22.6087 42.0541C23.7366 42.0541 24.3904 41.5359 24.3904 40.8105C24.3904 40.1409 23.8756 39.7902 23.0256 39.6706L22.6251 39.6148C22.2573 39.567 21.9631 39.4953 21.9631 39.2402C21.9631 38.9612 22.2409 38.7938 22.7068 38.7938C23.1346 38.8001 23.5537 38.9126 23.9246 39.1206L24.2924 38.451ZM47.0627 38.0525C46.8555 38.0465 46.6504 38.0952 46.4692 38.1934C46.288 38.2916 46.1372 38.4357 46.0329 38.6105V38.1481H45.1911V41.9584H46.0411V39.8221C46.0411 39.1924 46.319 38.8416 46.8747 38.8416C47.0566 38.8392 47.2371 38.8717 47.4061 38.9373L47.6676 38.1561C47.4735 38.0883 47.2689 38.0533 47.0627 38.0525ZM36.1107 40.0532C36.0994 40.3216 36.1459 40.5894 36.2471 40.8393C36.3482 41.0891 36.5019 41.3156 36.6982 41.5041C36.8946 41.6925 37.1291 41.8388 37.3869 41.9336C37.6447 42.0283 37.9199 42.0694 38.1949 42.0541C38.7053 42.0791 39.2067 41.917 39.6007 41.5997L39.192 40.9301C38.8982 41.1486 38.5399 41.2688 38.1704 41.2729C37.8518 41.254 37.5527 41.1173 37.334 40.8907C37.1153 40.664 36.9935 40.3645 36.9935 40.0533C36.9935 39.742 37.1153 39.4425 37.334 39.2159C37.5527 38.9892 37.8518 38.8525 38.1704 38.8337C38.5399 38.8377 38.8982 38.958 39.192 39.1765L39.6007 38.5068C39.2067 38.1895 38.7052 38.0275 38.1949 38.0525C37.9199 38.0372 37.6447 38.0783 37.387 38.173C37.1292 38.2677 36.8946 38.414 36.6983 38.6024C36.502 38.7909 36.3483 39.0173 36.2471 39.2672C36.1459 39.517 36.0994 39.7848 36.1107 40.0532ZM44.0714 40.0532V38.1481H43.2214V38.6105C43.0763 38.4281 42.8885 38.2823 42.6738 38.1852C42.4591 38.0881 42.2237 38.0426 41.9872 38.0525C41.4605 38.0777 40.9639 38.2995 40.6003 38.6719C40.2367 39.0444 40.0339 39.539 40.0339 40.0533C40.0339 40.5676 40.2367 41.0622 40.6003 41.4347C40.9639 41.8071 41.4605 42.0289 41.9872 42.0541C42.2237 42.064 42.4591 42.0184 42.6738 41.9213C42.8885 41.8242 43.0763 41.6784 43.2214 41.496V41.9584H44.0714V40.0532ZM40.9083 40.0532C40.9215 39.8283 41.0019 39.6122 41.1396 39.4314C41.2772 39.2505 41.4661 39.113 41.683 39.0356C41.8998 38.9582 42.1352 38.9444 42.3599 38.9959C42.5847 39.0474 42.7892 39.162 42.948 39.3254C43.1068 39.4889 43.2132 39.6941 43.2538 39.9158C43.2945 40.1375 43.2678 40.366 43.1769 40.573C43.0861 40.7801 42.9351 40.9567 42.7426 41.081C42.5501 41.2054 42.3244 41.2721 42.0935 41.2729C41.9317 41.275 41.7711 41.2444 41.622 41.183C41.4729 41.1216 41.3384 41.0308 41.227 40.9162C41.1157 40.8016 41.0299 40.6658 40.975 40.5173C40.9202 40.3687 40.8975 40.2107 40.9083 40.0532ZM30.6511 38.0525C30.1211 38.0797 29.6224 38.3061 29.2597 38.6841C28.8971 39.0622 28.6987 39.5625 28.7061 40.0801C28.7135 40.5978 28.9261 41.0925 29.2994 41.4606C29.6728 41.8286 30.1777 42.0413 30.7083 42.0541C31.2915 42.0741 31.8617 41.8839 32.3103 41.52L31.8934 40.9062C31.5707 41.1585 31.1709 41.2987 30.7573 41.3047C30.4765 41.3278 30.1974 41.2433 29.9793 41.0692C29.7612 40.8952 29.621 40.6451 29.5886 40.372H32.4901C32.4983 40.2685 32.5064 40.1648 32.5064 40.0532C32.4983 38.8655 31.7463 38.0525 30.6511 38.0525ZM30.6347 38.7938C30.8915 38.7889 31.1397 38.8835 31.3251 39.0568C31.5105 39.2302 31.6179 39.4681 31.6237 39.7185H29.5968C29.6117 39.4627 29.7286 39.2227 29.9226 39.0499C30.1166 38.8771 30.3722 38.7852 30.6347 38.7938ZM51.9585 40.0532V36.6177H51.1084V38.6105C50.9633 38.4281 50.7756 38.2823 50.5609 38.1852C50.3462 38.0881 50.1108 38.0426 49.8743 38.0525C49.3476 38.0776 48.851 38.2994 48.4874 38.6719C48.1237 39.0444 47.9209 39.539 47.9209 40.0533C47.9209 40.5676 48.1237 41.0622 48.4874 41.4347C48.851 41.8072 49.3476 42.0289 49.8743 42.0541C50.1108 42.0639 50.3462 42.0184 50.5609 41.9213C50.7756 41.8242 50.9634 41.6784 51.1084 41.496V41.9584H51.9585V40.0532ZM53.3754 41.4062C53.4282 41.4059 53.4805 41.416 53.5291 41.436C53.5759 41.455 53.6186 41.4826 53.6548 41.5172C53.6907 41.5517 53.7195 41.5927 53.7394 41.6378C53.7599 41.6843 53.7704 41.7342 53.7704 41.7847C53.7704 41.8353 53.7599 41.8852 53.7394 41.9317C53.7193 41.9766 53.6906 42.0174 53.6548 42.0518C53.6185 42.0864 53.5759 42.1141 53.5291 42.1335C53.4806 42.1538 53.4282 42.164 53.3754 42.1637C53.2976 42.1645 53.2214 42.1429 53.1561 42.1016C53.0909 42.0603 53.0395 42.0012 53.0085 41.9317C52.9881 41.8852 52.9776 41.8352 52.9776 41.7847C52.9776 41.7342 52.9881 41.6843 53.0085 41.6378C53.0285 41.5927 53.0571 41.5518 53.0928 41.5172C53.129 41.4823 53.1718 41.4547 53.2189 41.436C53.2685 41.4159 53.3217 41.4058 53.3754 41.4062ZM53.3754 42.0801C53.4157 42.0805 53.4556 42.0726 53.4925 42.0569C53.528 42.0419 53.5603 42.0205 53.5876 41.9938C53.6441 41.9382 53.6757 41.8632 53.6757 41.7849C53.6757 41.7067 53.6441 41.6316 53.5876 41.5761C53.5603 41.5495 53.528 41.5282 53.4925 41.5135C53.4555 41.4981 53.4156 41.4904 53.3754 41.4907C53.3344 41.4904 53.2938 41.4981 53.256 41.5135C53.2199 41.528 53.1871 41.5492 53.1594 41.5761C53.1029 41.6316 53.0712 41.7067 53.0712 41.7849C53.0712 41.8632 53.1029 41.9382 53.1594 41.9938C53.1871 42.0207 53.2199 42.0421 53.256 42.0569C53.2937 42.0725 53.3344 42.0804 53.3754 42.0801ZM53.3982 41.6076C53.4365 41.6052 53.4744 41.6159 53.5054 41.6378C53.5177 41.6478 53.5275 41.6603 53.534 41.6746C53.5406 41.6889 53.5436 41.7044 53.5429 41.72C53.5434 41.7333 53.5409 41.7466 53.5357 41.759C53.5306 41.7714 53.5228 41.7826 53.513 41.7919C53.4893 41.8124 53.4593 41.8246 53.4277 41.8267L53.5458 41.9594H53.4535L53.344 41.8276H53.3088V41.9594H53.2317V41.6076H53.3982ZM53.3088 41.6736V41.7673H53.3973C53.4143 41.7682 53.4312 41.7641 53.4459 41.7557C53.4518 41.7518 53.4566 41.7465 53.4598 41.7402C53.463 41.7339 53.4644 41.727 53.4639 41.72C53.4643 41.7131 53.4628 41.7063 53.4597 41.7002C53.4565 41.6941 53.4518 41.6889 53.4459 41.6851C53.4312 41.6768 53.4143 41.6728 53.3973 41.6736H53.3088ZM48.7955 40.0532C48.8087 39.8284 48.8891 39.6122 49.0267 39.4314C49.1644 39.2506 49.3533 39.113 49.5701 39.0357C49.787 38.9583 50.0223 38.9445 50.2471 38.9961C50.4718 39.0476 50.6762 39.1621 50.8351 39.3256C50.9939 39.489 51.1002 39.6943 51.1409 39.9159C51.1815 40.1376 51.1548 40.3661 51.0639 40.5731C50.9731 40.7801 50.8221 40.9567 50.6296 41.0811C50.4371 41.2054 50.2114 41.2721 49.9805 41.2729C49.8187 41.275 49.6582 41.2444 49.509 41.183C49.3599 41.1216 49.2254 41.0308 49.1141 40.9162C49.0028 40.8016 48.917 40.6658 48.8621 40.5172C48.8073 40.3687 48.7846 40.2107 48.7955 40.0532ZM20.0914 40.0532V38.1481H19.2414V38.6105C19.0963 38.4281 18.9085 38.2823 18.6938 38.1852C18.4791 38.0881 18.2437 38.0426 18.0072 38.0525C17.4805 38.0777 16.984 38.2995 16.6203 38.6719C16.2567 39.0444 16.0539 39.539 16.0539 40.0533C16.0539 40.5676 16.2567 41.0622 16.6203 41.4347C16.984 41.8071 17.4805 42.0289 18.0072 42.0541C18.2437 42.064 18.4791 42.0184 18.6938 41.9213C18.9085 41.8242 19.0963 41.6784 19.2414 41.496V41.9584H20.0914V40.0532ZM16.9284 40.0532C16.9416 39.8284 17.022 39.6122 17.1597 39.4314C17.2973 39.2506 17.4862 39.113 17.7031 39.0357C17.9199 38.9583 18.1552 38.9445 18.38 38.9961C18.6048 39.0476 18.8092 39.1621 18.968 39.3256C19.1269 39.489 19.2332 39.6943 19.2738 39.916C19.3145 40.1376 19.2878 40.3661 19.1969 40.5731C19.106 40.7801 18.955 40.9567 18.7625 41.0811C18.57 41.2054 18.3444 41.2721 18.1135 41.2729C17.9517 41.275 17.7911 41.2444 17.642 41.183C17.4929 41.1216 17.3584 41.0308 17.2471 40.9162C17.1357 40.8016 17.0499 40.6658 16.9951 40.5172C16.9403 40.3687 16.9176 40.2107 16.9284 40.0532Z" fill="#231F20"/>
<path d="M36.8842 9.11035H24.0098V31.6749H36.8842V9.11035Z" fill="#FF5F00"/>
<path d="M24.8274 20.3924C24.8254 18.2192 25.3303 16.0741 26.3039 14.1195C27.2776 12.1648 28.6944 10.4518 30.4472 9.1101C28.2766 7.44611 25.6698 6.41131 22.9247 6.12395C20.1797 5.83659 17.4071 6.30829 14.9239 7.48512C12.4407 8.66195 10.3471 10.4964 8.88237 12.7789C7.41763 15.0614 6.64087 17.6997 6.64087 20.3924C6.64087 23.085 7.41763 25.7234 8.88237 28.0058C10.3471 30.2883 12.4407 32.1228 14.9239 33.2996C17.4071 34.4764 20.1797 34.9481 22.9247 34.6608C25.6698 34.3734 28.2766 33.3386 30.4472 31.6746C28.6944 30.3329 27.2776 28.6199 26.3039 26.6652C25.3303 24.7106 24.8254 22.5655 24.8274 20.3924Z" fill="#EB001B"/>
<path d="M54.2528 20.3924C54.2529 23.085 53.4763 25.7233 52.0116 28.0058C50.5469 30.2882 48.4534 32.1227 45.9703 33.2996C43.4871 34.4764 40.7146 34.9481 37.9695 34.6608C35.2245 34.3734 32.6178 33.3386 30.4473 31.6746C32.1985 30.3316 33.6142 28.6183 34.5877 26.6639C35.5612 24.7096 36.067 22.5651 36.067 20.3924C36.067 18.2196 35.5612 16.0752 34.5877 14.1208C33.6142 12.1664 32.1985 10.4531 30.4473 9.1101C32.6178 7.44611 35.2245 6.4113 37.9695 6.12395C40.7146 5.8366 43.4871 6.3083 45.9703 7.48514C48.4534 8.66199 50.5469 10.4965 52.0116 12.7789C53.4763 15.0614 54.2529 17.6997 54.2528 20.3924Z" fill="#F79E1B"/>
<path d="M52.8491 29.2845V28.8226H53.0401V28.7285H52.5537V28.8226H52.7448V29.2845H52.8491ZM53.7935 29.2845V28.7275H53.6444L53.4729 29.1107L53.3013 28.7275H53.1521V29.2845H53.2574V28.8644L53.4183 29.2266H53.5274L53.6882 28.8635V29.2845H53.7935Z" fill="#F79E1B"/>
</svg>
