<svg width="74" height="20" viewBox="0 0 74 20" fill="none" xmlns="http://www.w3.org/2000/svg">
<path fill-rule="evenodd" clip-rule="evenodd" d="M7.22746 0.0034129C7.8825 -0.000505778 9.82923 -0.175839 10.6538 2.60718C11.2093 4.48186 12.0941 7.55266 13.3083 11.8196H13.8027C15.1048 7.3211 15.9993 4.25029 16.4862 2.60718C17.3193 -0.204829 19.4023 0.00346801 20.2355 0.00346801L26.6638 0.00347603V20H20.1119V8.2157H19.6726L16.0202 20H11.0908L7.43846 8.20697H6.99911V20H0.447266V0.00347603L7.22746 0.0034129ZM36.0721 0.00347603V11.7965H36.5947L41.0375 2.09918C41.8999 0.169386 43.738 0.00347603 43.738 0.00347603H50.0782V20H43.3895V8.20697H42.8668L38.5112 17.9043C37.6488 19.8254 35.7236 20 35.7236 20H29.3834V0.00347603H36.0721ZM73.1973 9.50596C72.2643 12.1499 69.3343 14.0433 66.0904 14.0433H59.076V20H52.7154V9.50596H73.1973Z" fill="#0F754E"/>
<path fill-rule="evenodd" clip-rule="evenodd" d="M66.3971 0.00341797H52.3818C52.7154 4.45532 56.5493 8.26644 60.5181 8.26644H73.6392C74.3964 4.56639 71.7898 0.00341797 66.3971 0.00341797Z" fill="url(#paint0_linear_1357_1819)"/>
<defs>
<linearGradient id="paint0_linear_1357_1819" x1="73.7679" y1="5.20122" x2="52.3818" y2="5.20122" gradientUnits="userSpaceOnUse">
<stop stop-color="#1F5CD7"/>
<stop offset="1" stop-color="#02AEFF"/>
</linearGradient>
</defs>
</svg>
