<svg width="75" height="24" viewBox="0 0 75 24" fill="none" xmlns="http://www.w3.org/2000/svg">
<path d="M28.2654 0.425758L18.518 23.6373H12.1588L7.3623 5.11181C7.0711 3.97078 6.81945 3.55315 5.93265 3.07243C4.48671 2.28903 2.09892 1.55479 0 1.09846L0.140755 0.425758H10.3775C11.6823 0.425758 12.8552 1.29314 13.1515 2.79298L15.6847 16.2237L21.945 0.425758H28.2654ZM53.1822 16.06C53.2077 9.93372 44.695 9.59621 44.7535 6.85935C44.7717 6.02642 45.5678 5.14084 47.3053 4.91441C48.1673 4.80178 50.5423 4.71585 53.238 5.95326L54.2946 1.03111C52.8444 0.503169 50.982 0 48.6648 0C42.7186 0 38.5339 3.15526 38.4986 7.67333C38.4599 11.0151 41.4844 12.88 43.7644 13.9904C46.1091 15.1276 46.8959 15.8583 46.8869 16.8755C46.8703 18.433 45.0172 19.1204 43.2847 19.1471C40.2602 19.1936 38.5068 18.3304 37.1078 17.6814L36.0174 22.7668C37.423 23.4105 40.0175 23.9721 42.7077 24C49.0281 24 53.162 20.8842 53.1814 16.0581L53.1822 16.06ZM68.8831 23.6373H74.447L69.5904 0.425758H64.455C63.9066 0.421146 63.3695 0.581018 62.9132 0.884665C62.4569 1.18831 62.1024 1.62174 61.8958 2.12879L52.8673 23.6373H59.1842L60.4386 20.1697H68.1549L68.8831 23.6373ZM62.1707 15.4121L65.3371 6.69602L67.1596 15.4117L62.1707 15.4121ZM36.8604 0.425758L31.8859 23.6373H25.8702L30.8467 0.425758H36.8604Z" fill="#1434CB"/>
</svg>
