<svg width="114" height="97" viewBox="0 0 114 97" fill="none" xmlns="http://www.w3.org/2000/svg">
<rect x="52" y="19" width="60" height="60" fill="#F0F2F5"/>
<path d="M29.4952 96L84.5048 96L112 48.4968L84.5048 0.999999L29.4952 0.999996L2 48.4968L29.4952 96Z" fill="white" stroke="#E1E5EB" stroke-width="2"/>
<g clip-path="url(#clip0_28_1002)">
<path d="M88.8864 24.5912C88.3187 22.3202 86.5352 20.9025 84.1856 20.8941C81.1714 20.8825 78.1572 20.8941 75.1429 20.8941H74.4633C74.5034 20.8557 74.5418 20.8157 74.5802 20.7773C74.1026 19.9941 73.6868 19.1625 73.129 18.4395C72.4844 17.6046 71.4858 17.284 70.5005 17.0034H43.4995C42.3673 17.2956 41.3085 17.7415 40.6138 18.7183C40.1529 19.3629 39.8373 20.111 39.4148 20.8891H38.842C35.9263 20.8891 33.0101 20.8891 30.0933 20.8891C26.9438 20.8925 25 22.8445 25 26.0039V62.6252C25 65.7828 26.9471 67.7315 30.1 67.7315H50.4731V72.2718C50.2694 72.3002 50.1057 72.3269 49.942 72.3436C47.4372 72.6041 45.4683 74.3909 45.0525 76.8756C44.9339 77.5886 44.979 78.33 44.974 79.0581C44.974 80.4808 45.5017 81.0018 46.9412 81.0018H64.7593C65.6143 81.0018 66.4677 81.0018 67.3227 81.0018C68.3914 80.9901 68.9926 80.4006 69.0176 79.3503C69.0293 78.7475 69.0293 78.1413 69.0076 77.5385C68.9516 76.2379 68.4312 75.0005 67.5409 74.0507C66.6505 73.1009 65.4492 72.5018 64.1548 72.362C63.936 72.3386 63.7206 72.3002 63.5186 72.2718V67.7315H79.625C81.2248 67.7416 82.8229 67.7566 84.4211 67.7198C85.451 67.6981 86.445 67.3369 87.2486 66.6922C88.0522 66.0475 88.6203 65.1555 88.8647 64.1547C88.9015 64.0161 88.9549 63.8842 89 63.7473V24.8751C88.9561 24.7829 88.9182 24.6881 88.8864 24.5912ZM39.515 29.8278C39.5384 30.4957 39.9158 30.8982 40.4903 30.8798C41.0347 30.8631 41.3803 30.4724 41.3837 29.8228C41.3837 27.9693 41.3837 26.1141 41.3837 24.2605C41.3837 23.4256 41.372 22.5907 41.3837 21.7558C41.4121 20.0859 42.6027 18.8753 44.271 18.8736C52.7498 18.867 61.2274 18.867 69.704 18.8736C71.4507 18.8736 72.603 20.1026 72.6046 21.9328C72.6046 28.7235 72.6046 35.5142 72.6046 42.3049V62.0741H41.377V34.8206C41.377 33.8555 41.0864 33.4046 40.4602 33.3946C39.834 33.3846 39.5017 33.8621 39.5017 34.8557V62.0741H30.651V26.5499H39.5017V28.8276C39.5117 29.1615 39.5033 29.4938 39.515 29.8278ZM67.1473 78.128V79.1048H46.9529C46.3183 76.0407 48.3005 74.1404 50.6952 74.1654C54.8583 74.2072 59.0231 74.1738 63.1862 74.1771C65.6878 74.1805 67.139 75.6316 67.1473 78.128ZM52.4319 72.2568V67.7716H61.5714V72.2568H52.4319ZM84.0336 65.8563C82.9114 65.8563 81.7909 65.8563 80.6687 65.8563C80.4784 65.8563 80.2863 65.8563 80.0959 65.8563H30.0098C28.0409 65.8563 26.882 64.7125 26.882 62.7704C26.882 50.4581 26.882 38.1464 26.882 25.8352C26.882 23.9232 28.051 22.7694 29.963 22.766C32.9221 22.766 35.8807 22.766 38.8387 22.766H39.4766V24.6396H30.5642C29.2617 24.6396 28.7507 25.1522 28.7507 26.4564C28.7507 38.3512 28.7507 50.2461 28.7507 62.1409C28.7507 63.4768 29.2516 63.9777 30.6059 63.9777H83.4174C84.725 63.9777 85.2544 63.4634 85.2544 62.1776C85.2544 50.2661 85.2544 38.3501 85.2544 26.4297C85.2544 25.1689 84.73 24.6396 83.4775 24.6379C80.7277 24.6379 77.9779 24.6379 75.2281 24.6379H74.5384V22.766H75.0745C78.0954 22.766 81.1146 22.766 84.1355 22.766C85.9524 22.7727 87.1213 23.96 87.1213 25.7985C87.1213 38.1308 87.1213 50.4631 87.1213 62.7955C87.1213 64.6991 85.9524 65.8513 84.0336 65.8563ZM74.5418 62.0724V26.5499H83.3239V62.0724H74.5418Z" fill="white"/>
<path d="M87.1211 62.7951C87.1211 64.6987 85.9522 65.8509 84.0301 65.8559C82.9079 65.8559 81.7874 65.8559 80.6652 65.8559C80.4748 65.8559 80.2828 65.8559 80.0924 65.8559H30.0096C28.0408 65.8559 26.8818 64.712 26.8818 62.77C26.8818 50.4577 26.8818 38.146 26.8818 25.8348C26.8818 23.9228 28.0508 22.769 29.9629 22.7656C32.922 22.7656 35.8805 22.7656 38.8385 22.7656H39.4764V24.6392H30.564C29.2615 24.6392 28.7505 25.1518 28.7505 26.456C28.7505 38.3508 28.7505 50.2456 28.7505 62.1405C28.7505 63.4763 29.2515 63.9773 30.6058 63.9773H83.4172C84.7248 63.9773 85.2542 63.463 85.2542 62.1772C85.2542 50.2657 85.2542 38.3497 85.2542 26.4293C85.2542 25.1685 84.7298 24.6392 83.4774 24.6375C80.7275 24.6375 77.9777 24.6375 75.2279 24.6375H74.5382V22.7656H75.0743C78.0952 22.7656 81.1144 22.7656 84.1353 22.7656C85.9522 22.7723 87.1211 23.9596 87.1211 25.7981C87.1211 38.1304 87.1211 50.4627 87.1211 62.7951Z" fill="#163C66"/>
<path d="M72.6128 62.0739H41.3851V34.8204C41.3851 33.8553 41.0946 33.4044 40.4683 33.3944C39.8421 33.3844 39.5098 33.8619 39.5098 34.8555V62.0739H30.6592V26.5497H39.5098V28.8274C39.5098 29.1613 39.5015 29.4953 39.5098 29.8293C39.5332 30.4972 39.9106 30.8996 40.485 30.8813C41.0294 30.8646 41.3751 30.4738 41.3785 29.8243C41.3785 27.9707 41.3785 26.1156 41.3785 24.262C41.3785 23.4271 41.3668 22.5922 41.3785 21.7573C41.4068 20.0874 42.5975 18.8768 44.2658 18.8751C52.7445 18.8684 61.2222 18.8684 69.6988 18.8751C71.4455 18.8751 72.5978 20.1041 72.5994 21.9343C72.5994 28.725 72.5994 35.5156 72.5994 42.3063V62.0739H72.6128ZM68.9991 34.6384C69.002 32.2655 68.3014 29.945 66.9856 27.9702C65.6699 25.9955 63.7981 24.4551 61.607 23.5439C59.4159 22.6327 57.0038 22.3916 54.6757 22.851C52.3475 23.3104 50.2079 24.4497 48.5272 26.1249C46.8465 27.8002 45.7003 29.936 45.2334 32.2626C44.7665 34.5891 45 37.0018 45.9042 39.1957C46.8084 41.3896 48.3429 43.2662 50.3135 44.5882C52.2842 45.9102 54.6025 46.6182 56.9756 46.6229C60.1578 46.6229 63.2102 45.3615 65.4639 43.115C67.7177 40.8686 68.9889 37.8204 68.9991 34.6384ZM57.034 50.8726H46.6638C46.4969 50.8642 46.3297 50.8642 46.1628 50.8726C45.9157 50.8759 45.68 50.9773 45.5076 51.1544C45.3352 51.3315 45.2402 51.5698 45.2435 51.8169C45.2468 52.064 45.3482 52.2997 45.5253 52.4721C45.7024 52.6445 45.9407 52.7395 46.1878 52.7362C46.3331 52.7495 46.4801 52.7362 46.6254 52.7362H67.3659C67.5531 52.7476 67.7409 52.7415 67.927 52.7178C68.4179 52.6259 68.7152 52.3087 68.7219 51.8161C68.7219 51.2951 68.4229 50.9645 67.9019 50.876C67.7156 50.8556 67.5279 50.8511 67.3408 50.8626L57.034 50.8726ZM56.9706 58.3735H67.2774C67.4644 58.3735 67.6531 58.3836 67.8385 58.3652C68.3662 58.3118 68.7619 57.9026 68.7269 57.4167C68.7264 57.1838 68.6369 56.9598 68.4767 56.7906C68.3166 56.6214 68.0978 56.5199 67.8652 56.5067C67.6986 56.4929 67.5312 56.4901 67.3642 56.4983H46.627C46.46 56.4899 46.2926 56.4932 46.1261 56.5083C45.6017 56.5818 45.2911 56.9007 45.2761 57.4217C45.261 57.9427 45.5783 58.2717 46.101 58.3585C46.2874 58.378 46.475 58.3825 46.6621 58.3719L56.9706 58.3735Z" fill="#163C66"/>
<path d="M74.542 26.5498H83.3241V62.0723H74.542V26.5498Z" fill="#163C66"/>
<path d="M67.1471 79.1044H46.9527C46.3181 76.0404 48.3003 74.1402 50.695 74.1653C54.8581 74.207 59.0229 74.1736 63.1861 74.177C65.691 74.177 67.1388 75.6313 67.1471 78.1276V79.1044Z" fill="#163C66"/>
<path d="M61.5711 67.7715V72.2563H52.4316V67.7715H61.5711Z" fill="#163C66"/>
<path d="M68.9992 34.6388C68.9966 37.0122 68.2902 39.3314 66.9693 41.3033C65.6484 43.2752 63.7725 44.8111 61.5786 45.7168C59.3848 46.6225 56.9716 46.8574 54.6443 46.3916C52.317 45.9259 50.1801 44.7805 48.5037 43.1003C46.8274 41.4201 45.6871 39.2806 45.2268 36.9523C44.7666 34.624 45.0071 32.2115 45.9181 30.02C46.829 27.8284 48.3695 25.9562 50.3446 24.64C52.3196 23.3239 54.6407 22.623 57.0142 22.626C60.1946 22.6361 63.2414 23.9059 65.4877 26.1574C67.7339 28.4089 68.9966 31.4585 68.9992 34.6388ZM46.876 34.6071C46.8724 36.609 47.4624 38.567 48.5714 40.2337C49.6803 41.9004 51.2586 43.2009 53.1066 43.9708C54.9545 44.7408 56.9893 44.9457 58.9537 44.5595C60.9181 44.1734 62.7239 43.2136 64.1429 41.8014C65.5619 40.3893 66.5304 38.5882 66.926 36.6257C67.3215 34.6633 67.1264 32.6277 66.3652 30.7761C65.604 28.9246 64.311 27.3402 62.6496 26.2233C60.9881 25.1065 59.0328 24.5072 57.0309 24.5012C54.3449 24.4977 51.7673 25.5597 49.8635 27.4543C47.9597 29.3489 46.8853 31.9213 46.876 34.6071Z" fill="white"/>
<path d="M57.0341 50.8724H67.3409C67.5279 50.8609 67.7156 50.8654 67.9019 50.8857C68.423 50.9742 68.7286 51.3048 68.7219 51.8258C68.7219 52.3267 68.418 52.6356 67.927 52.7275C67.741 52.7512 67.5531 52.7573 67.3659 52.7458H46.6271C46.4818 52.7458 46.3348 52.7458 46.1895 52.7458C45.9424 52.7491 45.7041 52.6542 45.527 52.4818C45.3499 52.3094 45.2485 52.0737 45.2452 51.8266C45.2419 51.5795 45.3369 51.3412 45.5093 51.1642C45.6817 50.9871 45.9174 50.8857 46.1645 50.8824C46.3314 50.874 46.4986 50.874 46.6655 50.8824L57.0341 50.8724Z" fill="white"/>
<path d="M56.9704 58.3736H46.6636C46.4765 58.3842 46.2889 58.3798 46.1025 58.3602C45.5798 58.2734 45.2676 57.9462 45.2776 57.4235C45.2876 56.9009 45.6032 56.5887 46.1276 56.5102C46.2941 56.4951 46.4615 56.4917 46.6286 56.5002H67.3657C67.5327 56.492 67.7001 56.4948 67.8667 56.5085C68.0993 56.5217 68.3181 56.6233 68.4782 56.7925C68.6384 56.9616 68.7279 57.1856 68.7284 57.4185C68.7635 57.9044 68.3677 58.3135 67.84 58.3669C67.6546 58.3853 67.4659 58.3669 67.2789 58.3753L56.9704 58.3736Z" fill="white"/>
<path d="M46.876 34.6066C46.8793 32.6048 47.4759 30.649 48.5905 28.9862C49.7051 27.3235 51.2877 26.0284 53.1381 25.2647C54.9886 24.5011 57.0239 24.3031 58.9868 24.6957C60.9498 25.0884 62.7523 26.0541 64.1665 27.4708C65.5807 28.8876 66.5433 30.6917 66.9324 32.6553C67.3215 34.6189 67.1198 36.6537 66.3527 38.5027C65.5857 40.3516 64.2877 41.9317 62.6228 43.0432C60.9579 44.1548 59.0009 44.7478 56.9991 44.7475C54.3122 44.744 51.7366 43.6738 49.8384 41.7723C47.9402 39.8707 46.8746 37.2933 46.876 34.6066ZM55.0686 33.9804C54.9093 33.7709 54.7387 33.5703 54.5576 33.3792C54.0285 32.8669 53.3201 32.5815 52.5836 32.584C51.847 32.5865 51.1406 32.8766 50.6149 33.3926C50.092 33.8983 49.7898 34.5901 49.7742 35.3175C49.7585 36.0448 50.0307 36.7489 50.5314 37.2767C51.2629 38.0715 52.0344 38.8413 52.8276 39.5677C54.1051 40.7282 56.0389 40.8234 57.2713 39.6562C59.4171 37.6273 61.4929 35.5216 63.5452 33.3959C64.315 32.5978 64.3952 31.5591 63.9844 30.5338C63.5736 29.5086 62.8004 28.9475 61.7133 28.8289C60.7581 28.7254 59.9649 29.0677 59.2952 29.7423C57.9209 31.1283 56.5382 32.5076 55.0686 33.9804Z" fill="#163C66"/>
<path d="M55.0686 33.9806C56.5381 32.5079 57.9208 31.1287 59.2951 29.7428C59.9631 29.0749 60.758 28.726 61.7132 28.8295C62.8003 28.948 63.5785 29.5241 63.9843 30.5343C64.3901 31.5445 64.3183 32.5981 63.5451 33.3962C61.4928 35.5217 59.4171 37.6273 57.2712 39.656C56.0388 40.8248 54.0983 40.7279 52.8275 39.5675C52.0276 38.8412 51.2628 38.0647 50.5314 37.2766C50.0306 36.7489 49.7584 36.0449 49.7741 35.3176C49.7897 34.5903 50.0919 33.8986 50.6149 33.3928C51.1405 32.8769 51.8469 32.5868 52.5835 32.5843C53.3201 32.5818 54.0285 32.8671 54.5576 33.3795C54.7386 33.5705 54.9092 33.7712 55.0686 33.9806ZM52.5637 34.3045C52.2481 34.5767 51.864 34.7503 51.7821 35.0175C51.7381 35.1868 51.7303 35.3636 51.759 35.5362C51.7878 35.7088 51.8526 35.8734 51.9491 36.0193C52.5537 36.7306 53.2433 37.3735 53.918 38.023C54.6761 38.7543 55.5345 38.7527 56.291 38.023C56.9355 37.4019 57.5601 36.759 58.1947 36.1262C59.4471 34.8739 60.6996 33.6216 61.9487 32.3676C62.4764 31.835 62.4496 31.1421 61.9002 30.8248C61.3859 30.5293 60.9517 30.7163 60.5643 31.1103C59.3018 32.3827 58.001 33.6149 56.7736 34.9206C55.4643 36.3115 54.8231 36.4468 53.4805 34.949C53.2634 34.7119 52.9344 34.5633 52.562 34.3045H52.5637Z" fill="white"/>
<path d="M52.5624 34.3043C52.9348 34.5631 53.2638 34.7117 53.4825 34.9571C54.8185 36.4599 55.4664 36.3196 56.7756 34.9288C58.003 33.6247 59.3039 32.3908 60.5664 31.1184C60.9588 30.7244 61.4013 30.5374 61.9023 30.8329C62.4551 31.1502 62.4784 31.8348 61.9507 32.3757C60.705 33.6347 59.4459 34.8803 58.1967 36.1343C57.5622 36.7671 56.9376 37.41 56.293 38.0311C55.5365 38.7624 54.6782 38.7641 53.9201 38.0311C53.2521 37.3799 52.5557 36.7371 51.9512 36.0274C51.8547 35.8815 51.7899 35.7169 51.7611 35.5443C51.7323 35.3717 51.7402 35.195 51.7842 35.0256C51.8627 34.7501 52.2468 34.5764 52.5624 34.3043Z" fill="#163C66"/>
</g>
<defs>
<clipPath id="clip0_28_1002">
<rect width="64" height="64" fill="white" transform="translate(25 17)"/>
</clipPath>
</defs>
</svg>
