<svg width="114" height="97" viewBox="0 0 114 97" fill="none" xmlns="http://www.w3.org/2000/svg">
<rect x="52" y="19" width="60" height="60" fill="#F0F2F5"/>
<path d="M29.4952 96.0088L84.5048 96.0088L112 48.5056L84.5048 1.00879L29.4952 1.00879L2 48.5056L29.4952 96.0088Z" fill="white" stroke="#E1E5EB" stroke-width="2"/>
<g clip-path="url(#clip0_28_1024)">
<path d="M25 68.6242V63.8742C25.0768 63.9661 25.157 64.0545 25.2288 64.1497C25.3737 64.3699 25.5875 64.5359 25.8367 64.6217C26.086 64.7075 26.3566 64.7082 26.6064 64.6239C27.1691 64.4569 27.453 64.0479 27.4947 63.4719C27.5098 63.2648 27.4947 63.0545 27.4947 62.8474V19.5469H70.7536V20.0711C70.7536 29.9216 70.7497 39.7722 70.742 49.6227C70.7308 49.9481 70.6328 50.2646 70.4581 50.5393C68.1754 54.1205 65.8627 57.6801 63.595 61.268C63.266 61.815 63.0291 62.4123 62.8937 63.0361C62.5748 64.4035 62.3376 65.7909 62.0922 67.0431C61.2907 67.1166 60.5726 67.0949 59.908 67.2702C59.2434 67.4455 58.6373 67.8161 57.9493 68.1267C57.9209 67.7927 57.8942 67.4889 57.8675 67.185C57.5903 64.0228 55.2308 62.7139 52.4355 64.1981C50.7585 65.0966 49.2761 66.3183 48.0739 67.7927C47.2077 68.8827 46.4032 70.0204 45.6643 71.2003C45.2735 71.8031 45.519 72.536 46.1051 72.8783C46.6912 73.2205 47.3926 73.0452 47.7967 72.4509C47.9486 72.2288 48.0755 71.9884 48.2191 71.758C49.6201 69.5141 51.3768 67.6258 53.7296 66.3502C54.7415 65.8009 55.174 66.043 55.356 67.1683C55.3761 67.2914 55.3861 67.4159 55.3861 67.5406C55.3861 68.8496 55.4028 70.1585 55.3861 71.4675C55.3761 72.3106 55.6516 72.8265 56.2694 72.9985C56.919 73.1805 57.3866 72.8933 57.8491 72.1971C58.2506 71.5688 58.7198 70.9866 59.2484 70.4607C59.6242 70.0984 60.1435 69.8664 60.6311 69.646C61.0552 69.4556 61.3591 69.5675 61.299 70.1368C61.2556 70.5726 61.279 71.0134 61.2322 71.4474C61.1654 72.0585 61.2907 72.5744 61.8668 72.8833C62.4428 73.1922 62.9304 73.0085 63.4264 72.6512C65.6389 71.0568 67.8632 69.479 70.084 67.8963C70.2761 67.7593 70.4765 67.6325 70.7086 67.4772V78.4497H27.5048C27.5048 77.114 27.5148 75.8184 27.5048 74.5295C27.5048 73.7197 26.9754 73.2055 26.234 73.2139C25.5995 73.2139 25.2672 73.6196 25.01 74.1255V69.3738C25.0918 69.489 25.177 69.6109 25.2572 69.7194C25.6229 70.1635 26.0787 70.3539 26.6415 70.1669C26.8903 70.0874 27.1075 69.9308 27.2616 69.7199C27.4157 69.5089 27.4988 69.2544 27.4988 68.9932C27.4988 68.7319 27.4157 68.4774 27.2616 68.2665C27.1075 68.0555 26.8903 67.8989 26.6415 67.8194C26.0804 67.6358 25.6195 67.8194 25.2605 68.2736C25.1553 68.3854 25.0802 68.5073 25 68.6242ZM33.3075 31.9418C33.3075 34.4813 33.3075 37.0207 33.3075 39.5601C33.3075 40.7288 33.7232 41.1496 34.8804 41.1512C39.2933 41.1512 43.7067 41.1512 48.1206 41.1512C49.3079 41.1512 49.7253 40.7255 49.7253 39.5217C49.7253 34.5241 49.7253 29.5282 49.7253 24.5339C49.7253 23.2934 49.3129 22.8794 48.0822 22.8794H35.156C33.6297 22.8794 33.3075 23.2133 33.3075 24.7626C33.3063 27.1546 33.3063 29.5477 33.3075 31.9418ZM49.7905 44.5255C44.9179 44.5255 40.0453 44.5255 35.1727 44.5255C33.9938 44.5255 33.5412 44.9763 33.5379 46.1416C33.5379 47.8696 33.5379 49.5977 33.5379 51.3257C33.5379 52.8433 33.8919 53.1956 35.4181 53.1956H58.5287C60.5075 53.1956 62.4846 53.1956 64.4634 53.1956C65.5938 53.1956 66.0163 52.7615 66.0196 51.6479C66.0196 49.8559 66.0196 48.065 66.0196 46.2752C66.0196 44.9078 65.6439 44.5288 64.2813 44.5288L49.7905 44.5255ZM43.8108 56.862H36.0644C35.7521 56.862 35.4382 56.8503 35.1276 56.8754C34.8407 56.8982 34.5709 57.021 34.3652 57.2224C34.1596 57.4238 34.0312 57.6909 34.0023 57.9773C33.9735 58.2636 34.0461 58.551 34.2075 58.7893C34.3689 59.0276 34.6088 59.2017 34.8855 59.2812C35.1481 59.342 35.4176 59.3678 35.687 59.358C39.7681 59.358 43.8497 59.358 47.9319 59.358H51.993C52.16 59.358 52.3269 59.3664 52.4939 59.358C53.212 59.2946 53.7279 58.7687 53.7296 58.1075C53.7291 57.9403 53.6948 57.7749 53.6287 57.6213C53.5626 57.4676 53.4662 57.329 53.3452 57.2135C53.2241 57.0981 53.081 57.0084 52.9244 56.9497C52.7678 56.891 52.6009 56.8646 52.4338 56.872C49.5584 56.8553 46.6846 56.862 43.8108 56.862ZM60.2169 25.367C58.7608 25.367 57.3047 25.367 55.8486 25.367C54.9152 25.367 54.3742 25.8295 54.3708 26.5992C54.3675 27.3689 54.9352 27.8614 55.8336 27.8614C58.7458 27.8614 61.6586 27.8614 64.5719 27.8614C65.482 27.8614 66.0263 27.3605 66.013 26.5842C65.9996 25.8078 65.477 25.372 64.5869 25.367C63.1308 25.357 61.6747 25.367 60.2169 25.367ZM60.2336 30.8666C58.7558 30.8666 57.278 30.8666 55.8019 30.8666C54.9119 30.8666 54.3792 31.3258 54.3658 32.0754C54.3525 32.825 54.9002 33.356 55.7485 33.3593C58.7018 33.3727 61.6564 33.3727 64.612 33.3593C65.4786 33.3593 66.0113 32.8484 66.0096 32.0988C66.008 31.3491 65.4886 30.8666 64.6053 30.8666C63.1492 30.8666 61.6931 30.8666 60.2336 30.8666ZM60.2453 36.3579C58.7425 36.3579 57.2496 36.3579 55.7518 36.3579C54.9085 36.3579 54.3875 36.8254 54.3675 37.5533C54.3475 38.2812 54.8902 38.8422 55.7368 38.8472C58.7113 38.8606 61.6864 38.8606 64.6621 38.8472C65.5154 38.8472 66.0363 38.2996 66.0096 37.5383C65.9829 36.8103 65.4669 36.3696 64.6136 36.3579C63.1609 36.3529 61.7048 36.3579 60.2487 36.3579H60.2453ZM39.2488 62.1028C37.958 62.1028 36.6672 62.1028 35.3764 62.1028C34.5415 62.1028 34.0138 62.5786 33.9971 63.3049C33.9804 64.0312 34.5281 64.5922 35.3764 64.5922C37.9802 64.6077 40.583 64.6077 43.1846 64.5922C44.0345 64.5922 44.6039 64.0596 44.6056 63.335C44.6073 62.6104 44.0462 62.1045 43.1846 62.0995C41.8654 62.0961 40.5612 62.1028 39.2488 62.1028Z" fill="#163C66"/>
<path d="M87.6825 34.6178C85.5117 32.3622 81.9583 32.7129 80.2083 35.3959C78.0375 38.7233 75.9034 42.0742 73.7527 45.4217C73.6241 45.622 73.4822 45.8157 73.2517 46.1597V45.3249C73.2517 36.4549 73.2562 27.5839 73.2651 18.7118C73.2651 17.9454 73.0497 17.3761 72.3801 17.0088H25V80.1189C25.369 80.7951 25.9318 81.0071 26.6999 81.0071C41.6539 80.9904 56.6079 80.986 71.5619 80.9938C72.846 80.9938 73.2451 80.5964 73.2451 79.3158C73.2451 74.3188 73.2451 69.3201 73.2567 64.323C73.263 63.977 73.3622 63.6391 73.544 63.3446C76.5575 58.6275 79.5793 53.9176 82.6095 49.215C84.4664 46.3266 86.3383 43.4466 88.1751 40.5465C89.4408 38.5597 89.2238 36.2206 87.6825 34.6178ZM70.7019 78.4493H27.5048C27.5048 77.501 27.5048 68.694 27.5048 63.1643C27.5048 61.8687 27.5048 60.7518 27.5048 59.9604V19.5466H70.7537V20.0708C70.7537 29.9213 70.7498 39.7718 70.742 49.6224C70.7308 49.9477 70.6328 50.2642 70.4581 50.539C68.1754 54.1202 65.8627 57.6798 63.595 61.2677C63.266 61.8147 63.0291 62.412 62.8937 63.0358C62.5748 64.4031 62.3377 65.7906 62.0922 67.0428C61.2907 67.1162 60.5726 67.0945 59.908 67.2698C59.2434 67.4451 58.6373 67.8158 57.9493 68.1263C57.9209 67.7924 57.8942 67.4885 57.8675 67.1847C57.5903 64.0225 55.2308 62.7135 52.4355 64.1978C50.7585 65.0963 49.2761 66.318 48.0739 67.7924C47.2077 68.8824 46.4032 70.02 45.6643 71.2C45.2735 71.8027 45.519 72.5357 46.1051 72.8779C46.6912 73.2202 47.3926 73.0449 47.7967 72.4505C47.9486 72.2285 48.0755 71.9881 48.2191 71.7576C49.6201 69.5137 51.3768 67.6254 53.7296 66.3499C54.7415 65.8006 55.174 66.0427 55.356 67.168C55.3761 67.2911 55.3861 67.4156 55.3861 67.5403C55.3861 68.8492 55.4028 70.1582 55.3861 71.4671C55.3761 72.3103 55.6516 72.8262 56.2694 72.9981C56.919 73.1801 57.3866 72.893 57.8491 72.1967C58.2506 71.5685 58.7198 70.9862 59.2484 70.4604C59.6242 70.0981 60.1435 69.866 60.6311 69.6456C61.0552 69.4553 61.3591 69.5672 61.299 70.1365C61.2556 70.5722 61.279 71.013 61.2322 71.4471C61.1654 72.0582 61.2907 72.5741 61.8668 72.8829C62.4429 73.1918 62.9304 73.0082 63.4264 72.6509C65.6389 71.0564 67.8632 69.4787 70.084 67.8959C70.2761 67.759 70.4765 67.6321 70.7086 67.4768L70.7019 78.4493ZM65.1163 64.5835L67.9016 66.3716L64.2663 68.9745C64.5752 67.4301 64.8324 66.0494 65.1163 64.5801V64.5835ZM69.7601 64.5935L65.9696 62.1542C70.8639 54.5409 75.7415 46.9611 80.6458 39.3261L84.4464 41.7586L69.7601 64.5935ZM85.7689 39.6399L82.0284 37.2408C82.7531 35.6062 84.3662 35.3107 85.4483 35.9986C86.6722 36.7766 86.8192 38.1907 85.7689 39.6366V39.6399Z" fill="white"/>
<path d="M33.3075 31.9414C33.3075 29.5472 33.3075 27.1541 33.3075 24.7622C33.3075 23.2078 33.6297 22.8806 35.156 22.8789H48.0839C49.3146 22.8789 49.727 23.293 49.727 24.5335C49.727 29.5288 49.727 34.5248 49.727 39.5213C49.727 40.725 49.3096 41.1491 48.1223 41.1508C43.7095 41.1508 39.2961 41.1508 34.8821 41.1508C33.7249 41.1508 33.3108 40.7334 33.3091 39.5597C33.3025 37.0202 33.3075 34.4808 33.3075 31.9414ZM37.9429 33.0834C36.6972 30.9129 37.4286 28.7525 38.7779 27.6072C39.4878 27.0005 40.3793 26.647 41.3122 26.6023C42.245 26.5576 43.1662 26.8241 43.931 27.3601C45.7333 28.6323 46.1291 30.5451 45.1183 33.0984L47.1955 34.2053V25.4133H35.854V34.2053L37.9429 33.0834ZM47.092 38.623C46.9902 38.2891 46.925 38.0337 46.8265 37.7883C46.4686 36.9091 45.7873 36.2005 44.9229 35.8081C42.5333 34.7062 40.1355 34.7062 37.801 35.9868C36.7874 36.5427 36.1879 37.436 35.9525 38.623H47.092ZM41.5147 32.5124C41.8505 32.5091 42.1777 32.4066 42.4553 32.2177C42.7329 32.0288 42.9484 31.7621 43.0747 31.451C43.2009 31.14 43.2324 30.7985 43.165 30.4697C43.0976 30.1408 42.9344 29.8392 42.6959 29.6029C42.4575 29.3666 42.1544 29.206 41.8249 29.1415C41.4954 29.0771 41.1542 29.1115 40.8442 29.2405C40.5343 29.3694 40.2694 29.5872 40.0829 29.8664C39.8965 30.1456 39.7968 30.4737 39.7965 30.8094C39.8026 31.2618 39.9861 31.6936 40.3074 32.0121C40.6287 32.3306 41.0623 32.5102 41.5147 32.5124Z" fill="white"/>
<path d="M49.7904 44.5248H64.2813C65.6438 44.5248 66.0196 44.9038 66.0196 46.2712C66.0196 48.0632 66.0196 49.8541 66.0196 51.6439C66.0196 52.7575 65.5938 53.1866 64.4633 53.1916C62.4845 53.2016 60.5074 53.1916 58.5286 53.1916H35.4164C33.8901 53.1916 33.5361 52.8393 33.5361 51.3217C33.5361 49.5937 33.5361 47.8657 33.5361 46.1376C33.5361 44.9689 33.992 44.5232 35.1709 44.5215C40.0446 44.5215 44.9178 44.5226 49.7904 44.5248ZM63.4831 50.6589V47.0776H36.0977V50.6589H63.4831Z" fill="white"/>
<path d="M43.8107 56.8614C46.6845 56.8614 49.5583 56.8614 52.4321 56.8614C52.5992 56.8539 52.766 56.8804 52.9226 56.9391C53.0792 56.9978 53.2224 57.0875 53.3434 57.2029C53.4644 57.3183 53.5609 57.457 53.627 57.6106C53.693 57.7642 53.7274 57.9296 53.7279 58.0969C53.7279 58.7647 53.2102 59.2839 52.4922 59.3474C52.3252 59.3624 52.1582 59.3474 51.9912 59.3474H47.9318C43.8508 59.3474 39.7691 59.3474 35.6869 59.3474C35.4175 59.3572 35.148 59.3314 34.8854 59.2706C34.6088 59.191 34.3688 59.0169 34.2075 58.7786C34.0461 58.5403 33.9735 58.253 34.0023 57.9666C34.0311 57.6803 34.1595 57.4131 34.3651 57.2118C34.5708 57.0104 34.8406 56.8876 35.1275 56.8647C35.4381 56.8397 35.752 56.8514 36.0643 56.8514H43.8107V56.8614Z" fill="white"/>
<path d="M60.2168 25.3668C61.6746 25.3668 63.1307 25.3668 64.5868 25.3668C65.4768 25.3668 66.0011 25.8293 66.0128 26.5839C66.0245 27.3386 65.4818 27.8612 64.5751 27.8612C61.6629 27.8678 58.7501 27.8678 55.8368 27.8612C54.9384 27.8612 54.3707 27.3603 54.374 26.5973C54.3774 25.8343 54.9184 25.3685 55.8518 25.3651C57.3046 25.3568 58.7607 25.3668 60.2168 25.3668Z" fill="white"/>
<path d="M60.2333 30.8664C61.6894 30.8664 63.1455 30.8664 64.6016 30.8664C65.4849 30.8664 66.0076 31.3356 66.0093 32.0969C66.0109 32.8582 65.4783 33.3541 64.6116 33.3574C61.6582 33.3686 58.7037 33.3686 55.7481 33.3574C54.8998 33.3574 54.3521 32.8148 54.3655 32.0735C54.3788 31.3322 54.9115 30.8681 55.8015 30.8647C57.281 30.8664 58.7588 30.8664 60.2333 30.8664Z" fill="white"/>
<path d="M60.2486 36.3575C61.7047 36.3575 63.1608 36.3575 64.6169 36.3575C65.4702 36.3575 65.9862 36.8099 66.0129 37.5379C66.0396 38.2992 65.5119 38.8418 64.6653 38.8468C61.6897 38.8635 58.7146 38.8635 55.74 38.8468C54.8934 38.8468 54.349 38.2942 54.3707 37.5529C54.3925 36.8116 54.9118 36.3625 55.755 36.3575C57.2529 36.3508 58.7507 36.3575 60.2486 36.3575Z" fill="white"/>
<path d="M39.2481 62.1024C40.5606 62.1024 41.8714 62.1024 43.1839 62.1024C44.0456 62.1024 44.605 62.6033 44.605 63.3379C44.605 64.0725 44.0356 64.5917 43.1839 64.5917C40.5801 64.604 37.9774 64.604 35.3758 64.5917C34.5275 64.5917 33.9798 64.0458 33.9965 63.3045C34.0132 62.5632 34.5358 62.1091 35.3758 62.1024C36.6665 62.0874 37.9573 62.1024 39.2481 62.1024Z" fill="white"/>
<path d="M69.7603 64.5916L65.9697 62.1524C70.864 54.5391 75.7416 46.9592 80.646 39.3242L84.4465 41.7585L69.7603 64.5916Z" fill="#163C66"/>
<path d="M82.0303 37.2375C82.7533 35.603 84.3681 35.3075 85.4484 35.9954C86.6724 36.7767 86.8194 38.1909 85.7691 39.6367L82.0303 37.2375Z" fill="#163C66"/>
<path d="M64.2656 68.9711C64.5662 67.4234 64.8317 66.0493 65.1156 64.5801L67.9009 66.3682L64.2656 68.9711Z" fill="#163C66"/>
<path d="M37.9425 33.0836L35.8535 34.2056V25.4136H47.1967V34.2056L45.1195 33.0936C46.1325 30.5425 45.7367 28.6297 43.9322 27.3553C43.1676 26.8191 42.2465 26.5523 41.3137 26.5967C40.3808 26.6411 39.4892 26.9943 38.7791 27.6007C37.4282 28.7527 36.6968 30.9048 37.9425 33.0836Z" fill="#163C66"/>
<path d="M47.0926 38.6232H35.9531C36.1936 37.4362 36.788 36.5463 37.8016 35.987C40.1394 34.698 42.529 34.7097 44.9235 35.81C45.788 36.2024 46.4692 36.911 46.8271 37.7901C46.9307 38.0339 46.9908 38.296 47.0926 38.6232Z" fill="#163C66"/>
<path d="M41.5149 32.5124C41.1793 32.5091 40.8521 32.4066 40.5745 32.2178C40.297 32.029 40.0815 31.7624 39.9552 31.4514C39.8288 31.1405 39.7973 30.7991 39.8646 30.4703C39.9318 30.1415 40.0949 29.8399 40.3332 29.6035C40.5714 29.3671 40.8743 29.2064 41.2037 29.1418C41.5331 29.0771 41.8743 29.1113 42.1843 29.24C42.4943 29.3687 42.7593 29.5863 42.9459 29.8652C43.1326 30.1442 43.2325 30.4721 43.2332 30.8077C43.2293 31.2609 43.0465 31.6942 42.7248 32.0134C42.403 32.3327 41.9682 32.512 41.5149 32.5124Z" fill="#163C66"/>
<path d="M63.4831 50.6594H36.0977V47.0781H63.4831V50.6594Z" fill="#163C66"/>
</g>
<defs>
<clipPath id="clip0_28_1024">
<rect width="64" height="64" fill="white" transform="translate(25 17.0088)"/>
</clipPath>
</defs>
</svg>
