<svg width="114" height="98" viewBox="0 0 114 98" fill="none" xmlns="http://www.w3.org/2000/svg">
<rect x="52" y="19" width="60" height="60" fill="#F0F2F5"/>
<path d="M29.4952 96.0181L84.5048 96.0181L112 48.5149L84.5048 1.01807L29.4952 1.01806L2 48.5149L29.4952 96.0181Z" fill="white" stroke="#E1E5EB" stroke-width="2"/>
<g clip-path="url(#clip0_28_1050)">
<path d="M80.996 57.0303C80.996 56.9252 80.996 56.8188 80.996 56.7138V31.9533C80.996 29.7587 81.0043 27.5627 80.996 25.368C81.0029 24.6288 80.7599 23.9085 80.3053 23.3212C79.8508 22.7339 79.2108 22.3132 78.4867 22.1258C78.3927 22.095 78.3005 22.059 78.2105 22.0181L35.8133 22.0181C33.5816 22.8787 33.0195 23.6985 33.0195 26.0814V41.7345C33.0195 41.7904 33.0195 41.8463 33.0195 41.9023V43.6073C32.9974 43.7647 32.9974 43.9245 33.0195 44.0819C33.0195 50.5158 33.0195 60.503 33.0195 65.948C33.0195 67.9558 34.4682 69.373 36.5107 69.3962C36.9002 69.3962 37.2896 69.3962 37.7095 69.3962C37.7095 70.456 37.6943 71.4421 37.7095 72.4283C37.7329 73.5836 38.4773 74.2956 39.6429 74.2997C41.0032 74.3065 42.3649 74.2997 43.7265 74.2997C45.2567 74.2997 45.9237 73.6368 45.9251 72.1173V69.4275H68.0214C68.0421 69.4656 68.057 69.5065 68.0656 69.5489C68.0656 70.4846 68.0656 71.4203 68.0766 72.356C68.0863 73.559 68.8307 74.2956 70.0446 74.3011C71.4063 74.3011 72.7666 74.3011 74.1282 74.3011C75.6225 74.3011 76.2923 73.6341 76.2951 72.1419C76.2951 71.2444 76.2951 70.3469 76.2951 69.3934C76.7563 69.3934 77.1665 69.4002 77.5753 69.3934C79.5252 69.3566 80.967 67.9381 80.9822 66.0189C81.0043 64.4994 81.0002 59.4759 80.996 57.0303ZM34.5718 25.5372C34.5718 24.2659 35.301 23.5512 36.595 23.5512H77.4358C78.6552 23.5512 79.4382 24.2605 79.441 25.4008C79.4493 30.1492 79.4493 34.8973 79.441 39.6449C79.441 39.7281 79.4286 39.8113 79.4189 39.934H76.3365C76.3254 39.739 76.3061 39.5426 76.3047 39.3462C76.3047 35.8407 76.3047 32.3353 76.3047 28.8298C76.3047 27.3131 75.6335 26.6474 74.1048 26.6474H54.2002C53.3716 26.6474 52.9821 26.8984 52.9863 27.4249C52.9904 27.9514 53.3674 28.1792 54.2126 28.1792H73.9611C74.7525 28.1792 74.7538 28.1792 74.7538 28.9744V62.4644C74.7538 63.2268 74.7538 63.2282 73.9818 63.2282H40.0171C39.2631 63.2282 39.2631 63.2282 39.2617 62.4998C39.2617 61.5832 39.2617 60.6666 39.2617 59.6914C39.4785 59.6777 39.6581 59.6573 39.8376 59.6559C41.2794 59.6423 41.9436 58.9808 41.945 57.5486C41.945 55.6935 41.945 53.8385 41.945 51.9835C41.945 50.5922 41.2545 49.9116 39.8569 49.9034H39.3045V41.5026C39.6097 41.5026 39.8846 41.5135 40.1566 41.5026C41.1799 41.4508 41.9243 40.7483 41.9354 39.7431C41.9602 37.6689 41.9602 35.5929 41.9354 33.5151C41.9229 32.5044 41.202 31.8183 40.1608 31.7528C39.8846 31.7365 39.6084 31.7528 39.2741 31.7528C39.2741 30.6262 39.2603 29.5445 39.2976 28.4643C39.2976 28.3661 39.6235 28.1983 39.7989 28.1915C41.2462 28.1696 42.6991 28.1792 44.1422 28.1792H49.9867C50.176 28.1877 50.3656 28.1777 50.5529 28.1492C50.7176 28.1245 50.8676 28.0419 50.9755 27.9166C51.0834 27.7913 51.1417 27.6317 51.1398 27.4672C51.1619 27.1044 51.0017 26.8261 50.6468 26.7184C50.4311 26.6654 50.2087 26.6443 49.9867 26.6556C46.6253 26.6556 43.2648 26.6556 39.9053 26.6556C38.4013 26.6556 37.7177 27.3253 37.715 28.7957C37.715 29.7614 37.715 30.7271 37.715 31.7215H34.5704V30.7953C34.5704 29.0426 34.5676 27.2899 34.5718 25.5372ZM79.4244 41.5394V49.8598H76.3379V41.5394H79.4244ZM34.5704 41.9023V41.5422H37.6694V49.8693H34.5704V43.3358C34.5704 43.0548 34.5704 42.7739 34.5704 42.4956C34.5745 42.2978 34.5745 42.1 34.5704 41.9023ZM40.4024 39.3625C40.4024 39.8236 40.2643 39.99 39.7851 39.9818C38.1997 39.9559 36.6088 39.9722 35.0289 39.9709C34.8908 39.9709 34.7624 39.9586 34.6008 39.9504V33.2764H39.02C40.3914 33.2764 40.3914 33.2764 40.3914 34.6159C40.3942 36.2035 40.3817 37.7803 40.4024 39.3625ZM34.6022 51.4365C36.421 51.4365 38.1762 51.4365 39.9329 51.4365C40.256 51.4365 40.4052 51.5511 40.4038 51.8826C40.3965 53.8212 40.3965 55.7604 40.4038 57.7C40.4038 57.9605 40.3251 58.1255 40.0268 58.1255C38.2536 58.1192 36.4799 58.1128 34.7057 58.1064C34.6754 58.1064 34.6464 58.0764 34.6035 58.0546L34.6022 51.4365ZM44.3646 72.4692C44.3646 72.5715 44.1491 72.7529 44.0317 72.7543C42.5706 72.7743 41.1086 72.7743 39.6456 72.7543C39.52 72.7543 39.2935 72.5538 39.2907 72.4406C39.2631 71.4421 39.2741 70.4437 39.2741 69.4221H44.3839C44.3729 70.4396 44.3825 71.4571 44.3577 72.4692H44.3646ZM74.7373 72.4474C74.7373 72.5579 74.5039 72.7529 74.3768 72.7557C72.9304 72.7775 71.4854 72.7775 70.0418 72.7557C69.9037 72.7557 69.6676 72.5361 69.6634 72.4119C69.6316 71.4312 69.6455 70.4492 69.6455 69.4262H74.7552C74.7469 70.4505 74.7594 71.449 74.7304 72.4474H74.7373ZM79.4452 56.1177C79.4452 57.8023 79.4452 64.1353 79.4452 65.8198C79.4452 67.151 78.7243 67.8658 77.364 67.8658H36.624C35.2968 67.8658 34.5718 67.1497 34.569 65.8512C34.569 63.9616 34.569 62.0729 34.569 60.1852V59.6955H37.7108C37.7108 60.668 37.7108 61.6051 37.7108 62.5326C37.7108 64.1162 38.3627 64.7613 39.966 64.7613H74.0357C75.6667 64.7613 76.3047 64.123 76.3047 62.493V51.4652H79.4452V52.0435C79.4452 53.3957 79.4452 54.7474 79.4452 56.0986V56.1177Z" fill="white"/>
<path d="M79.4445 56.1174C79.4445 57.8019 79.4445 64.1349 79.4445 65.8195C79.4445 67.1507 78.7236 67.8654 77.3633 67.8654H36.6233C35.2962 67.8654 34.5711 67.1493 34.5684 65.8508C34.5684 63.9613 34.5684 62.0726 34.5684 60.1848V59.6952H37.7102C37.7102 60.6677 37.7102 61.6047 37.7102 62.5322C37.7102 64.1158 38.362 64.761 39.9654 64.761H74.035C75.666 64.761 76.3041 64.1227 76.3041 62.4927V51.4648H79.4445V52.0432C79.4445 53.3953 79.4445 54.7471 79.4445 56.0983V56.1174Z" fill="#163C66"/>
<path d="M37.6693 41.542V49.8691H34.5703V43.3356C34.5703 43.0547 34.5703 42.7737 34.5703 42.4954C34.5703 42.2976 34.5703 42.0999 34.5703 41.9021V41.542H37.6693Z" fill="#163C66"/>
<path d="M39.3031 41.5027C39.6083 41.5027 39.8817 41.5136 40.1551 41.5027C41.1785 41.4509 41.9228 40.7484 41.9339 39.7432C41.9588 37.669 41.9588 35.593 41.9339 33.5152C41.9228 32.5045 41.202 31.8184 40.1607 31.7529C39.8845 31.7366 39.6083 31.7529 39.2741 31.7529C39.2741 30.6263 39.2602 29.5446 39.2975 28.4644C39.2975 28.3661 39.6221 28.1984 39.7988 28.1916C41.2461 28.1697 42.699 28.1793 44.1421 28.1793H49.9866C50.1759 28.1878 50.3656 28.1778 50.5528 28.1493C50.7175 28.1246 50.8676 28.042 50.9754 27.9167C51.0833 27.7914 51.1416 27.6317 51.1398 27.4673C51.1605 27.1045 51.0016 26.8262 50.6467 26.7184C50.431 26.6655 50.2086 26.6444 49.9866 26.6557C46.627 26.6557 43.2666 26.6557 39.9052 26.6557C38.4013 26.6557 37.7176 27.3254 37.7149 28.7958C37.7149 29.7615 37.7149 30.7272 37.7149 31.7216H34.5703V30.7954C34.5703 29.0431 34.5703 27.2904 34.5703 25.5372C34.5703 24.266 35.3009 23.5513 36.5949 23.5513H77.4357C78.6551 23.5513 79.4382 24.2605 79.4409 25.4008C79.4492 30.1493 79.4492 34.8974 79.4409 39.645C79.4409 39.7282 79.4285 39.8114 79.4188 39.9341H76.3364C76.3254 39.7391 76.3046 39.5427 76.3046 39.3462C76.3046 35.8408 76.3046 32.3353 76.3046 28.8299C76.3046 27.3131 75.6335 26.6475 74.1047 26.6475H54.2001C53.3715 26.6475 52.982 26.8985 52.9862 27.425C52.9903 27.9515 53.3673 28.1793 54.2125 28.1793H73.9611C74.7524 28.1793 74.7524 28.1793 74.7524 28.9745C74.7524 40.1374 74.7524 51.3007 74.7524 62.4645C74.7524 63.2269 74.7524 63.2283 73.9818 63.2283H40.017C39.263 63.2283 39.2616 63.2283 39.2616 62.4999C39.2616 61.5833 39.2616 60.6667 39.2616 59.6915C39.4784 59.6778 39.658 59.6574 39.8375 59.656C41.2779 59.6424 41.9436 58.9808 41.9449 57.5487C41.9449 55.6936 41.9449 53.8386 41.9449 51.9836C41.9449 50.5923 41.2544 49.9117 39.8568 49.9035H39.3044L39.3031 41.5027ZM57.1527 35.8804C55.0319 36.0684 53.0223 36.9014 51.4008 38.2646C51.0666 37.9018 50.7641 37.554 50.4341 37.2293C50.0197 36.8201 49.5419 36.7779 49.2119 37.1134C48.8818 37.4489 48.9274 37.9045 49.3624 38.3192C49.6952 38.637 50.0529 38.9234 50.4189 39.2344C48.9743 40.9503 48.1913 42.8039 47.9827 44.9331C47.5049 44.9331 47.0602 44.9331 46.6169 44.9331C45.9499 44.9413 45.6184 45.2059 45.624 45.7079C45.6295 46.2098 45.9554 46.454 46.6363 46.4622C47.0796 46.4622 47.5242 46.4622 47.9869 46.4622C48.1913 48.6159 48.984 50.4627 50.412 52.1623C50.0363 52.4937 49.6648 52.7979 49.3223 53.1307C48.9274 53.514 48.908 53.9818 49.2257 54.2996C49.5433 54.6174 50.0239 54.5888 50.4133 54.2014C50.7503 53.8645 51.061 53.5003 51.3994 53.1307C53.0203 54.4992 55.0307 55.3378 57.1541 55.5313C57.1541 56.0469 57.1444 56.5052 57.1541 56.9635C57.1693 57.5364 57.4551 57.8556 57.9261 57.8583C58.397 57.861 58.6842 57.5418 58.6981 56.969C58.7091 56.4957 58.6981 56.021 58.6981 55.5245C60.8347 55.3426 62.8596 54.5029 64.4873 53.1239C64.8132 53.4881 65.117 53.8563 65.454 54.1946C65.8421 54.5874 66.3157 54.6215 66.6403 54.3146C66.9648 54.0077 66.9483 53.5112 66.527 53.1075C66.1859 52.7815 65.8117 52.4869 65.4485 52.1745C66.8452 50.5704 67.7006 48.5759 67.8956 46.469C68.3099 46.469 68.6911 46.469 69.0681 46.469C69.2401 46.474 69.4123 46.4667 69.5832 46.4472C70.021 46.3803 70.2627 46.1143 70.2489 45.6792C70.2533 45.5844 70.2379 45.4897 70.2036 45.4011C70.1693 45.3124 70.1169 45.2316 70.0497 45.1638C69.9825 45.096 69.9018 45.0426 69.8128 45.0069C69.7237 44.9712 69.6282 44.954 69.5321 44.9563C68.9894 44.9263 68.4439 44.9563 67.8901 44.9563C67.7045 42.8618 66.8643 40.8761 65.4858 39.274C65.8683 38.922 66.2301 38.6097 66.5685 38.2714C66.9496 37.8922 66.9662 37.4053 66.6361 37.0984C66.3061 36.7915 65.8503 36.8256 65.4885 37.1884C65.1267 37.5512 64.8325 37.9236 64.5011 38.3001C62.7472 36.8611 60.869 36.089 58.7132 35.8858C58.7132 35.3989 58.7132 34.9419 58.7132 34.485C58.7008 33.8657 58.4301 33.5507 57.9316 33.5575C57.433 33.5643 57.1776 33.8862 57.1665 34.5123C57.1472 34.9406 57.1527 35.3852 57.1527 35.8804Z" fill="#163C66"/>
<path d="M34.5989 33.2764H39.0181C40.3895 33.2764 40.3895 33.2764 40.3895 34.6158C40.3895 36.198 40.3757 37.7802 40.3978 39.3625C40.3978 39.8235 40.2597 39.9899 39.7804 39.9817C38.195 39.9558 36.6041 39.9722 35.0242 39.9708C34.8861 39.9708 34.7563 39.9585 34.5947 39.9503L34.5989 33.2764Z" fill="#163C66"/>
<path d="M34.5947 51.4365C36.4121 51.4365 38.1688 51.4365 39.9255 51.4365C40.2486 51.4365 40.3964 51.5511 40.3964 51.8825C40.389 53.8212 40.389 55.7604 40.3964 57.7C40.3964 57.9605 40.3163 58.1255 40.0194 58.1255C38.2461 58.1192 36.4724 58.1128 34.6983 58.1064C34.6679 58.1064 34.6375 58.0764 34.5961 58.0546L34.5947 51.4365Z" fill="#163C66"/>
<path d="M79.4225 41.5396V49.8599H76.3359V41.5396H79.4225Z" fill="#163C66"/>
<path d="M39.2679 69.4219H44.3777C44.3777 70.4435 44.3873 71.4569 44.3625 72.469C44.3625 72.5713 44.147 72.7527 44.0297 72.7541C42.5667 72.7741 41.1047 72.7741 39.6435 72.7541C39.5179 72.7541 39.2914 72.5536 39.2886 72.4404C39.2555 71.4419 39.2679 70.4394 39.2679 69.4219Z" fill="#163C66"/>
<path d="M69.6387 69.4248H74.7485C74.7485 70.4505 74.7595 71.449 74.7319 72.4474C74.7319 72.5579 74.4985 72.7529 74.3701 72.7557C72.9255 72.7775 71.4805 72.7775 70.0351 72.7557C69.897 72.7557 69.6608 72.5361 69.6567 72.4119C69.6249 71.4299 69.6387 70.4478 69.6387 69.4248Z" fill="#163C66"/>
<path d="M57.1532 35.8803C57.1532 35.3811 57.1532 34.9405 57.1532 34.4986C57.1643 33.878 57.4294 33.5561 57.9183 33.5438C58.4072 33.5315 58.6875 33.8521 58.7 34.4713C58.7082 34.9282 58.7 35.3852 58.7 35.8721C60.8557 36.0754 62.7339 36.8474 64.4878 38.2864C64.8192 37.9099 65.13 37.5253 65.4752 37.1747C65.8205 36.8242 66.3038 36.7874 66.6229 37.0847C66.9419 37.3821 66.9363 37.8785 66.5552 38.2577C66.2168 38.596 65.855 38.9084 65.4725 39.2603C66.851 40.8624 67.6912 42.8481 67.8768 44.9426C68.4292 44.9426 68.9816 44.9194 69.5188 44.9426C69.6149 44.9403 69.7104 44.9575 69.7995 44.9932C69.8885 45.0289 69.9692 45.0823 70.0364 45.1501C70.1036 45.2179 70.156 45.2987 70.1903 45.3874C70.2246 45.476 70.24 45.5707 70.2356 45.6655C70.2494 46.1007 70.0077 46.3666 69.5699 46.4335C69.399 46.453 69.2268 46.4603 69.0548 46.4553C68.6778 46.4553 68.2994 46.4553 67.8823 46.4553C67.6873 48.5622 66.8319 50.5567 65.4352 52.1609C65.7984 52.4732 66.1726 52.7678 66.5138 53.0938C66.935 53.503 66.9653 53.9804 66.627 54.3009C66.2887 54.6215 65.8288 54.5737 65.4407 54.1809C65.1065 53.8426 64.8027 53.4744 64.474 53.1102C62.8503 54.4888 60.8301 55.3303 58.6972 55.5163C58.6972 56.0127 58.7055 56.4874 58.6972 56.9607C58.6834 57.5336 58.3989 57.8514 57.9252 57.85C57.4515 57.8487 57.1684 57.5281 57.1532 56.9553C57.1408 56.497 57.1532 56.0387 57.1532 55.5231C55.0299 55.3296 53.0194 54.4909 51.3985 53.1225C51.0602 53.4921 50.7494 53.8563 50.4125 54.1932C50.023 54.5806 49.5466 54.6024 49.2248 54.2914C48.903 53.9804 48.9265 53.5057 49.3215 53.1225C49.664 52.7896 50.0355 52.4855 50.4111 52.154C48.9831 50.449 48.1863 48.6077 47.986 46.4539C47.5234 46.4539 47.0787 46.4539 46.6354 46.4539C45.9546 46.4457 45.6286 46.1989 45.6231 45.6996C45.6176 45.2004 45.949 44.9331 46.6161 44.9249C47.0594 44.9249 47.5041 44.9249 47.9819 44.9249C48.189 42.7916 48.9735 40.938 50.4221 39.2221C50.0617 38.9111 49.6985 38.6246 49.3657 38.3068C48.9306 37.8976 48.8878 37.4353 49.2151 37.1011C49.5424 36.7669 50.0203 36.801 50.4373 37.217C50.7633 37.5416 51.0657 37.8895 51.4041 38.2523C53.0263 36.894 55.0348 36.0654 57.1532 35.8803ZM57.9501 37.3984C56.2871 37.3949 54.6605 37.8785 53.2759 38.7881C51.8913 39.6977 50.8108 40.9924 50.1712 42.5085C49.5317 44.0246 49.3616 45.694 49.6827 47.3055C50.0037 48.917 50.8014 50.3983 51.9748 51.5621C53.1483 52.7258 54.6448 53.5197 56.2751 53.8434C57.9054 54.1671 59.5963 54.0061 61.1339 53.3806C62.6716 52.7551 63.9869 51.6933 64.9135 50.3295C65.8401 48.9657 66.3365 47.3612 66.3397 45.7187C66.3427 44.6282 66.1279 43.5477 65.7077 42.5392C65.2875 41.5306 64.6702 40.6138 63.891 39.841C63.1119 39.0683 62.1861 38.4548 61.1667 38.0357C60.1473 37.6166 59.0543 37.4 57.9501 37.3984Z" fill="white"/>
<path d="M57.9496 37.3985C59.6124 37.4017 61.2369 37.8919 62.6177 38.807C63.9985 39.722 65.0735 41.021 65.7069 42.5395C66.3402 44.058 66.5035 45.7279 66.176 47.338C65.8484 48.9481 65.0449 50.4262 63.8669 51.5853C62.6889 52.7444 61.1893 53.5324 59.5579 53.8498C57.9264 54.1672 56.2363 53.9997 54.7012 53.3684C53.1662 52.7371 51.8551 51.6704 50.9338 50.3032C50.0125 48.936 49.5224 47.3297 49.5254 45.6874C49.5258 44.5964 49.7441 43.5161 50.168 42.5086C50.5919 41.501 51.2129 40.586 51.9955 39.8159C52.7781 39.0459 53.7069 38.436 54.7286 38.0212C55.7504 37.6063 56.8449 37.3947 57.9496 37.3985ZM53.9101 45.7284C53.9198 46.6034 54.2202 47.4511 54.7651 48.1411C55.31 48.8311 56.0693 49.3252 56.9263 49.5475C58.6581 49.9976 60.6039 49.2815 61.369 47.6775C61.804 46.7636 62.2294 46.2808 63.2872 46.4404C63.7154 46.5045 63.9777 46.1566 64.015 45.7338C64.0551 45.341 63.7388 44.9973 63.2914 44.9536C63.0001 44.9218 62.7063 44.9186 62.4144 44.9441C62.0236 44.9836 61.862 44.8472 61.7364 44.4612C61.1439 42.6335 59.2298 41.4727 57.3834 41.7742C55.3381 42.107 53.9005 43.7465 53.9101 45.7284Z" fill="#163C66"/>
<path d="M53.9102 45.7282C53.9005 43.7463 55.3382 42.1068 57.3835 41.7726C59.2299 41.4712 61.144 42.6319 61.7364 44.4597C61.8607 44.8457 62.0237 44.9821 62.4145 44.9425C62.7064 44.9171 63.0002 44.9203 63.2915 44.9521C63.7348 44.9957 64.0552 45.3394 64.0151 45.7323C63.9723 46.1551 63.7154 46.5029 63.2873 46.4388C62.2295 46.2792 61.8041 46.7621 61.3691 47.676C60.604 49.28 58.6581 49.9947 56.9263 49.546C56.0696 49.3237 55.3105 48.8298 54.7656 48.1401C54.2207 47.4503 53.9202 46.603 53.9102 45.7282ZM55.4611 45.6982C55.4594 46.182 55.6033 46.6555 55.8745 47.0584C56.1456 47.4614 56.5318 47.7758 56.9841 47.9617C57.4364 48.1476 57.9344 48.1967 58.415 48.1027C58.8955 48.0087 59.337 47.7759 59.6834 47.4337C60.0298 47.0916 60.2656 46.6556 60.3608 46.1809C60.4559 45.7063 60.4062 45.2144 60.218 44.7677C60.0298 44.321 59.7115 43.9396 59.3035 43.6717C58.8954 43.4039 58.4161 43.2618 57.9262 43.2635C57.2749 43.2712 56.6524 43.5303 56.1918 43.9852C55.7312 44.4401 55.469 45.0549 55.4611 45.6982Z" fill="white"/>
<path d="M55.4609 45.6981C55.4634 45.2146 55.6111 44.7427 55.8853 44.3422C56.1595 43.9416 56.5479 43.6305 57.0012 43.4481C57.4546 43.2657 57.9526 43.2203 58.4321 43.3176C58.9116 43.4149 59.3511 43.6505 59.695 43.9947C60.0388 44.3389 60.2715 44.7761 60.3636 45.251C60.4556 45.7258 60.403 46.217 60.2122 46.6623C60.0215 47.1076 59.7012 47.487 59.2921 47.7524C58.8829 48.0178 58.4031 48.1573 57.9136 48.1533C57.2601 48.1447 56.6363 47.8822 56.1773 47.4227C55.7182 46.9632 55.4609 46.3436 55.4609 45.6981Z" fill="#163C66"/>
</g>
<defs>
<clipPath id="clip0_28_1050">
<rect width="48" height="52.2857" fill="white" transform="translate(33 22.0181)"/>
</clipPath>
</defs>
</svg>
