<svg width="114" height="98" viewBox="0 0 114 98" fill="none" xmlns="http://www.w3.org/2000/svg">
<rect x="52" y="19" width="60" height="60" fill="#F0F2F5"/>
<path d="M29.4952 96.0273L84.5048 96.0274L112 48.5242L84.5048 1.02734L29.4952 1.02734L2 48.5242L29.4952 96.0273Z" fill="white" stroke="#E1E5EB" stroke-width="2"/>
<g clip-path="url(#clip0_28_1073)">
<path d="M25 68.0273C25.3106 66.3178 26.3826 65.1075 27.5681 63.9389C35.0107 56.5265 42.4384 49.103 49.851 41.6684C50.0179 41.4915 50.2216 41.3345 50.4537 41.1292C49.2565 39.9288 48.1161 38.7786 46.9623 37.6517C46.8554 37.5482 46.5782 37.5532 46.4062 37.6C44.122 38.2293 41.9664 37.433 40.8259 35.5148C39.6855 33.5966 40.0061 31.2811 41.6975 29.5783C45.3326 25.9372 48.9827 22.3095 52.6044 18.6551C53.3992 17.8537 54.4019 17.2899 55.4997 17.0273H57.0025C57.1695 17.0874 57.3448 17.1559 57.5201 17.2076C58.1229 17.3772 58.6858 17.6653 59.1759 18.0551C59.6659 18.4448 60.0733 18.9284 60.3742 19.4775C60.675 20.0266 60.8633 20.6301 60.9281 21.2528C60.9928 21.8756 60.9326 22.5049 60.7511 23.1041C60.6159 23.5549 60.706 23.8053 61.0249 24.1225C65.7359 28.8125 70.4346 33.5115 75.121 38.2193C75.4282 38.5282 75.6737 38.5749 76.0895 38.4497C77.0846 38.1476 78.1517 38.1836 79.1241 38.5521C80.0966 38.9206 80.9195 39.6008 81.4644 40.4864C82.5831 42.2861 82.4095 44.6701 80.8984 46.2043C77.0702 50.0941 73.2108 53.9528 69.3203 57.7803C67.7708 59.3028 65.4214 59.4647 63.6081 58.3295C62.714 57.7786 62.0306 56.9438 61.6673 55.9585C61.3041 54.9733 61.2819 53.8948 61.6044 52.8955C61.6698 52.7489 61.6843 52.5846 61.6455 52.4288C61.6068 52.273 61.5171 52.1346 61.3906 52.0357C60.3253 51.009 59.2884 49.9539 58.2398 48.9105C58.1452 48.8502 58.0558 48.7821 57.9726 48.7068C57.8568 48.9284 57.7186 49.1376 57.5602 49.3312C49.8905 57.0107 42.2174 64.6857 34.541 72.3562C32.6542 74.2427 30.2898 74.7252 28.0974 73.6651C26.5412 72.9138 25.5711 71.6701 25.1419 70.0006C25.1002 69.842 25.0484 69.6851 25.0017 69.5265L25 68.0273ZM48.9493 35.9389L63.2758 50.2711L73.3978 40.1559L59.063 25.8253L48.9493 35.9389ZM47.3647 47.7101C47.3113 47.7619 47.1977 47.8587 47.1009 47.9606L28.5065 66.5566C28.403 66.6601 28.2994 66.7636 28.2059 66.8738C27.8961 67.2345 27.6792 67.6656 27.5742 68.1294C27.4692 68.5932 27.4793 69.0757 27.6036 69.5347C27.728 69.9937 27.9627 70.4153 28.2874 70.7628C28.6122 71.1103 29.017 71.373 29.4666 71.5282C30.7156 71.9472 31.7792 71.5933 32.7059 70.6651C38.854 64.5026 45.0076 58.3468 51.1667 52.1976C51.2953 52.0674 51.4138 51.9272 51.5007 51.8337L47.3647 47.7101ZM44.8701 35.3262C45.6398 35.3495 46.2059 34.9773 46.7302 34.4547C50.3435 30.8309 53.9613 27.2104 57.5836 23.5933C57.7192 23.4642 57.8468 23.327 57.966 23.1826C58.2079 22.8811 58.3679 22.5224 58.4307 22.141C58.4934 21.7596 58.4567 21.3685 58.324 21.0055C58.1914 20.6424 57.9674 20.3197 57.6736 20.0686C57.3798 19.8174 57.0261 19.6462 56.6469 19.5716C55.812 19.4046 55.1057 19.7018 54.5046 20.3061C51.8663 22.9595 49.2198 25.6083 46.5649 28.2527C45.4762 29.3412 44.3758 30.423 43.3055 31.5248C42.6176 32.2344 42.4556 33.0874 42.8597 33.999C43.2404 34.8604 43.9384 35.2861 44.8701 35.3262ZM77.3718 40.6066C76.8709 40.8637 76.2631 41.014 75.8791 41.3913C72.0665 45.1509 68.2767 48.9322 64.5097 52.7352C64.2278 53.0037 64.026 53.3451 63.9266 53.7215C63.8273 54.0979 63.8343 54.4945 63.947 54.8671C64.4162 56.6233 66.4717 57.1175 67.8092 55.7853C71.4982 52.1125 75.1811 48.4308 78.8579 44.7402C79.0096 44.5979 79.1467 44.4407 79.267 44.2711C79.5071 43.9394 79.6484 43.5467 79.6747 43.1381C79.701 42.7296 79.6112 42.3219 79.4156 41.9622C79.0166 41.1709 78.3386 40.7786 77.3735 40.6066H77.3718ZM49.3617 45.8237L53.3257 49.7719L56.1827 46.9339L52.217 42.9739L49.3617 45.8237Z" fill="white"/>
<path d="M82.4393 72.5262C84.1625 72.5262 85.8072 72.5262 87.4486 72.5262C88.564 72.5262 88.9998 72.9636 89.0015 74.0805C89.0015 75.8724 89.0015 77.6631 89.0015 79.4528C89.0015 80.5713 88.5607 81.0237 87.4636 81.0237H47.9122C46.8318 81.0237 46.3776 80.578 46.376 79.5212C46.376 77.6904 46.376 75.8579 46.376 74.0237C46.376 72.992 46.8335 72.5329 47.8587 72.5296C49.5285 72.5296 51.1832 72.5296 52.9348 72.5296V69.7583C52.9348 69.1757 52.9264 68.5897 52.9348 68.0087C52.9548 66.977 53.404 66.5329 54.4376 66.5312C57.2283 66.5312 60.019 66.5312 62.8097 66.5312H80.7429C82.0319 66.5312 82.4293 66.9236 82.4327 68.2007C82.4393 69.6147 82.4393 71.0204 82.4393 72.5262ZM48.909 78.4862H86.4468V75.0271H85.652C81.6134 75.0271 77.5737 75.0271 73.5329 75.0271C72.6229 75.0271 72.0668 74.5379 72.0718 73.7683C72.0768 72.9987 72.6312 72.5312 73.5496 72.5296C75.4447 72.5296 77.3399 72.5296 79.2351 72.5296H79.8913V69.0555H55.4728V72.5262H56.1808C58.0977 72.5262 60.0129 72.5179 61.9281 72.5262C62.995 72.5262 63.6179 73.4745 63.1537 74.3493C62.8615 74.8985 62.3656 75.0271 61.7845 75.0254C57.7236 75.0176 53.6606 75.0176 49.5953 75.0254H48.8973L48.909 78.4862Z" fill="white"/>
<path d="M80.9823 57.4146C79.9687 57.286 79.391 56.2927 79.8568 55.4697C79.9768 55.2763 80.1223 55.1 80.2893 54.9455C82.1093 53.1191 83.9333 51.2972 85.7611 49.4797C85.9838 49.2363 86.2606 49.0487 86.5693 48.9321C86.8194 48.846 87.0919 48.8504 87.3391 48.9447C87.5863 49.039 87.7925 49.2171 87.9218 49.448C88.0844 49.6716 88.1615 49.9462 88.1392 50.2218C88.1168 50.4974 87.9964 50.7559 87.7999 50.9505C87.3691 51.4279 86.8999 51.8737 86.444 52.3294C84.9613 53.8136 83.4852 55.3077 81.9824 56.7752C81.7036 57.039 81.3179 57.2026 80.9823 57.4146Z" fill="white"/>
<path d="M84.466 62.1512C83.4241 62.1512 82.3838 62.1512 81.3419 62.1512C80.4836 62.1512 79.941 61.6404 79.9493 60.8874C79.9593 60.1596 80.492 59.6604 81.3118 59.6571C83.4157 59.6482 85.5196 59.6482 87.6235 59.6571C88.4333 59.6571 88.9844 60.1729 88.9927 60.8891C89.0011 61.6053 88.4384 62.1429 87.5918 62.1512C86.5499 62.1596 85.5079 62.1512 84.466 62.1512Z" fill="white"/>
<path d="M48.9492 35.9387L59.0629 25.8252L73.3978 40.1557L63.2757 50.2709L48.9492 35.9387Z" fill="#163C66"/>
<path d="M47.3648 47.71L51.4957 51.8335C51.4106 51.927 51.292 52.0672 51.1618 52.1974C45.0082 58.3555 38.8551 64.5113 32.7026 70.6649C31.7759 71.5931 30.7123 71.947 29.4633 71.528C29.0137 71.3729 28.6089 71.1101 28.2842 70.7626C27.9595 70.4152 27.7247 69.9935 27.6004 69.5345C27.4761 69.0755 27.4659 68.5931 27.5709 68.1292C27.6759 67.6654 27.8928 67.2343 28.2027 66.8736C28.2962 66.7634 28.3997 66.6599 28.5032 66.5564L47.1009 47.9604C47.2078 47.8585 47.3113 47.7617 47.3648 47.71Z" fill="#163C66"/>
<path d="M44.8699 35.3262C43.9365 35.2861 43.2386 34.8604 42.8578 33.9906C42.4538 33.0791 42.6157 32.226 43.3037 31.5165C44.374 30.4096 45.4744 29.3328 46.563 28.2444C49.2113 25.5966 51.8584 22.9477 54.5044 20.2978C55.1055 19.6934 55.8034 19.3946 56.6467 19.5632C57.026 19.6378 57.3796 19.809 57.6734 20.0602C57.9672 20.3114 58.1912 20.6341 58.3239 20.9971C58.4565 21.3602 58.4932 21.7513 58.4305 22.1326C58.3677 22.514 58.2077 22.8728 57.9658 23.1742C57.8467 23.3187 57.719 23.4558 57.5834 23.5849C53.9645 27.2043 50.3467 30.8248 46.73 34.4464C46.2057 34.9772 45.6413 35.3495 44.8699 35.3262Z" fill="#163C66"/>
<path d="M77.3733 40.6064C78.3384 40.7734 79.0163 41.1707 79.4171 41.962C79.6126 42.3217 79.7024 42.7294 79.6761 43.1379C79.6498 43.5465 79.5085 43.9392 79.2685 44.2709C79.1481 44.4405 79.0111 44.5977 78.8594 44.74C75.1792 48.4239 71.4963 52.1056 67.8106 55.7851C66.4748 57.1206 64.4176 56.6198 63.9484 54.8669C63.8358 54.4943 63.8287 54.0977 63.928 53.7213C64.0274 53.3449 64.2292 53.0035 64.5112 52.735C68.2893 48.942 72.079 45.1607 75.8805 41.3911C76.2612 41.0138 76.8707 40.8635 77.3733 40.6064Z" fill="#163C66"/>
<path d="M49.3613 45.8234L52.2166 42.9736L56.1856 46.9352L53.3287 49.7733L49.3613 45.8234Z" fill="#163C66"/>
<path d="M48.9043 78.4864V75.0273H49.6023C53.6631 75.0273 57.7262 75.0273 61.7915 75.0273C62.3725 75.0273 62.8684 74.9004 63.1607 74.3512C63.6248 73.4764 63.002 72.5348 61.9351 72.5281C60.0198 72.5148 58.1046 72.5281 56.1878 72.5281H55.4731V69.0557H79.8949V72.5265H79.2387C77.3435 72.5265 75.4484 72.5265 73.5532 72.5265C72.6348 72.5265 72.0805 73.0006 72.0755 73.7652C72.0705 74.5298 72.6265 75.0223 73.5365 75.0239C77.5762 75.0239 81.6159 75.0239 85.6556 75.0239H86.447V78.483L48.9043 78.4864ZM68.9146 73.7735C68.9116 73.5293 68.8362 73.2915 68.6979 73.0902C68.5596 72.8889 68.3647 72.7332 68.1378 72.6427C67.9109 72.5523 67.6623 72.5312 67.4234 72.5821C67.1845 72.6331 66.9661 72.7537 66.7959 72.9288C66.6257 73.104 66.5112 73.3257 66.4671 73.5659C66.423 73.8061 66.4512 74.0539 66.5481 74.2781C66.645 74.5023 66.8062 74.6927 67.0114 74.8251C67.2166 74.9576 67.4565 75.0262 67.7007 75.0223C68.0268 75.0161 68.3373 74.8815 68.5647 74.6476C68.792 74.4138 68.9178 74.0996 68.9146 73.7735Z" fill="#163C66"/>
<path d="M68.9151 73.7736C68.9131 74.0177 68.8387 74.2558 68.7013 74.4576C68.564 74.6595 68.3698 74.816 68.1433 74.9074C67.9169 74.9989 67.6685 75.0211 67.4294 74.9713C67.1904 74.9214 66.9715 74.8018 66.8004 74.6276C66.6294 74.4533 66.514 74.2322 66.4687 73.9923C66.4234 73.7524 66.4503 73.5044 66.546 73.2798C66.6418 73.0552 66.802 72.8641 67.0064 72.7306C67.2109 72.5971 67.4504 72.5272 67.6945 72.5299C68.0212 72.5334 68.3332 72.6663 68.562 72.8994C68.7908 73.1326 68.9178 73.447 68.9151 73.7736Z" fill="white"/>
</g>
<defs>
<clipPath id="clip0_28_1073">
<rect width="64" height="64" fill="white" transform="translate(25 17.0273)"/>
</clipPath>
</defs>
</svg>
