<svg width="114" height="98" viewBox="0 0 114 98" fill="none" xmlns="http://www.w3.org/2000/svg">
<rect x="52" y="19" width="60" height="60" fill="#F0F2F5"/>
<path d="M29.4952 96.0361L84.5048 96.0361L112 48.533L84.5048 1.03613L29.4952 1.03613L2 48.533L29.4952 96.0361Z" fill="white" stroke="#E1E5EB" stroke-width="2"/>
<g clip-path="url(#clip0_28_1094)">
<path d="M30.9482 35.7666C31.2411 35.0018 31.8046 34.6697 32.6147 34.5147C49.0521 31.3978 65.4873 28.2679 81.9201 25.1249C83.3708 24.849 83.8538 25.1794 84.1364 26.6407L89.4458 54.1971C89.7249 55.6482 89.3824 56.1609 87.9523 56.4334C71.5012 59.5741 55.0483 62.7148 38.5938 65.8556C37.7717 66.0123 37.1208 65.8896 36.6224 65.1981L30.9482 35.7666ZM81.557 27.9999L34.0226 37.0559L39.01 62.9209L86.5427 53.8581L81.557 27.9999Z" fill="white"/>
<path d="M81.557 27.9951L86.5426 53.8584L39.0099 62.9212L34.0225 37.0562L81.557 27.9951Z" fill="#163C66"/>
<path d="M61.1925 50.1482C59.9434 50.3919 58.648 50.1322 57.5914 49.4261C56.5349 48.72 55.8036 47.6255 55.5586 46.3833C55.3135 45.141 55.5747 43.8529 56.2847 42.8021C56.9947 41.7514 58.0953 41.0242 59.3445 40.7805C60.5959 40.5417 61.8915 40.8037 62.9498 41.5095C64.0081 42.2152 64.7436 43.3078 64.9964 44.5497C65.1189 45.1659 65.1175 45.8002 64.9923 46.4158C64.8671 47.0315 64.6206 47.6164 64.267 48.1368C63.9134 48.6573 63.4596 49.103 62.932 49.4482C62.4043 49.7934 61.8131 50.0313 61.1925 50.1482Z" fill="#163C66"/>
<path d="M27.2969 39.602C27.6531 38.8645 28.2389 38.58 29.0627 38.4932C45.7056 36.7616 62.344 35.0146 78.9778 33.2524C80.449 33.0974 80.9029 33.467 81.0605 34.9471L84.0372 62.8474C84.1947 64.3173 83.8094 64.7993 82.3621 64.9526C65.6998 66.7069 49.0386 68.4669 32.3785 70.2326C31.5461 70.3211 30.909 70.1423 30.4705 69.4133L27.2969 39.602ZM78.3818 36.0797L30.2513 41.1485L33.0396 67.3371L81.1667 62.27L78.3818 36.0797Z" fill="white"/>
<path d="M78.3815 36.0801L81.1698 62.2704L33.0427 67.3375L30.251 41.1488L78.3815 36.0801Z" fill="#163C66"/>
<path d="M56.2233 56.459C54.9587 56.5977 53.6905 56.2311 52.6977 55.4399C52.2061 55.0482 51.7969 54.564 51.4935 54.015C51.19 53.4659 50.9983 52.8629 50.9293 52.2402C50.8602 51.6175 50.9152 50.9873 51.091 50.3858C51.2669 49.7842 51.5601 49.223 51.9541 48.7341C52.7497 47.7468 53.9071 47.1142 55.1717 46.9755C56.44 46.8394 57.711 47.2071 58.708 47.9986C59.705 48.79 60.3472 49.9411 60.4948 51.2012C60.5629 51.8256 60.5063 52.4572 60.3283 53.0598C60.1503 53.6624 59.8544 54.2241 59.4575 54.7126C59.0606 55.2012 58.5705 55.6069 58.0155 55.9066C57.4605 56.2063 56.8514 56.3941 56.2233 56.459Z" fill="#163C66"/>
<path d="M23.9998 42.0499C24.4314 41.3533 25.0445 41.1301 25.8735 41.1318C42.6066 41.1523 59.3398 41.1574 76.0729 41.1472C77.551 41.1472 77.9569 41.5628 77.9569 43.0514V71.1084C77.9569 72.5868 77.5236 73.0262 76.0729 73.0262C59.3181 73.0262 42.5632 73.0296 25.8084 73.0365C24.9726 73.0365 24.356 72.7929 23.998 72.0145L23.9998 42.0499ZM75.1738 43.8962H26.7743V70.2313H75.1738V43.8962Z" fill="white"/>
<path d="M75.1738 43.896V70.2311H26.7744V43.896H75.1738ZM50.9972 45.2586H34.5278C33.3838 45.2586 32.9436 45.6571 32.8271 46.7795C32.673 48.2494 31.695 49.2015 30.1964 49.3344C29.1602 49.4314 28.7252 49.8964 28.7235 50.9524C28.7235 55.031 28.7235 59.1102 28.7235 63.19C28.7235 64.2562 29.1105 64.6718 30.1878 64.8064C31.8149 65.009 32.673 65.9032 32.8374 67.5622C32.9162 68.3524 33.3512 68.7936 34.1373 68.8804C34.3287 68.8975 34.5208 68.9043 34.7128 68.9009H67.2662C67.4377 68.9044 67.6091 68.8993 67.78 68.8856C68.5936 68.8038 69.0526 68.3422 69.1297 67.5349C69.2872 65.9066 70.1402 65.0124 71.7278 64.8098C72.8685 64.665 73.2402 64.2494 73.2402 63.1066C73.2402 59.0904 73.2402 55.0748 73.2402 51.0597C73.2402 49.8913 72.8257 49.4417 71.6662 49.3361C71.0213 49.287 70.4147 49.0127 69.9536 48.5616C69.4925 48.1106 69.2067 47.5119 69.1468 46.8715C69.0166 45.6145 68.621 45.2586 67.3399 45.2586H50.9972Z" fill="#163C66"/>
<path d="M50.9974 45.2534H67.3315C68.6126 45.2534 69.0082 45.6094 69.1384 46.8664C69.1983 47.5068 69.4841 48.1054 69.9452 48.5565C70.4063 49.0075 71.0129 49.2818 71.6578 49.3309C72.8173 49.4365 73.2318 49.8862 73.2318 51.0546C73.2318 55.0707 73.2318 59.0864 73.2318 63.1014C73.2318 64.2511 72.8601 64.6667 71.7194 64.8046C70.1317 65.0073 69.2788 65.9015 69.1213 67.5298C69.0442 68.3371 68.5852 68.7987 67.7716 68.8804C67.6007 68.8941 67.4292 68.8992 67.2578 68.8957H34.713C34.5209 68.8992 34.3288 68.8924 34.1375 68.8753C33.3462 68.7884 32.9163 68.3473 32.8376 67.557C32.6663 65.8981 31.8099 65.0022 30.188 64.8012C29.1107 64.6667 28.7253 64.2511 28.7236 63.1849C28.7236 59.1062 28.7236 55.027 28.7236 50.9473C28.7236 49.8913 29.1604 49.4263 30.1966 49.3292C31.6952 49.1895 32.6731 48.2375 32.8273 46.7744C32.9437 45.652 33.3839 45.2534 34.528 45.2534H50.9974ZM31.4434 51.9215C31.4434 55.2768 31.4434 58.564 31.4605 61.8615C31.4839 61.9705 31.5326 62.0726 31.6028 62.1596C31.673 62.2466 31.7627 62.316 31.8647 62.3622C33.4952 62.9856 34.6462 64.0842 35.2319 65.7209C35.3724 66.1127 35.5745 66.1757 35.929 66.1757C45.9712 66.1689 56.0133 66.1689 66.0555 66.1757C66.4289 66.1757 66.6019 66.0752 66.7406 65.7039C66.9977 64.9457 67.4258 64.2561 67.9922 63.6878C68.5586 63.1195 69.2483 62.6876 70.0084 62.4252C70.3904 62.2856 70.5308 62.1135 70.5222 61.7014C70.5051 58.6197 70.5051 55.538 70.5222 52.4563C70.5222 52.0527 70.4058 51.8721 70.0084 51.7324C68.4824 51.1857 67.376 50.1553 66.8022 48.6445C66.5984 48.108 66.3364 47.9632 65.7866 47.9735C55.9169 47.9916 46.046 47.9962 36.1739 47.9871C36.0259 47.9673 35.8756 47.9707 35.7286 47.9973C35.5693 48.0518 35.3484 48.1455 35.3039 48.2732C34.6564 50.1399 33.3565 51.322 31.4434 51.9215Z" fill="white"/>
<path d="M31.443 51.9214C33.3561 51.3219 34.656 50.1399 35.312 48.2749C35.3565 48.1471 35.5775 48.0534 35.7367 47.9989C35.8837 47.9724 36.034 47.9689 36.182 47.9887C46.0541 47.9887 55.925 47.9842 65.7948 47.9751C66.3445 47.9751 66.6066 48.1097 66.8104 48.6462C67.3842 50.1569 68.4906 51.1874 70.0166 51.7341C70.4071 51.8738 70.5304 52.0543 70.5304 52.458C70.5133 55.5408 70.5133 58.6225 70.5304 61.703C70.5304 62.1152 70.3934 62.2872 70.0166 62.4269C69.2565 62.6892 68.5668 63.1211 68.0004 63.6894C67.434 64.2577 67.0058 64.9474 66.7487 65.7056C66.6134 66.0769 66.4405 66.1774 66.0637 66.1774C56.0158 66.1683 45.9736 66.1683 35.9371 66.1774C35.5792 66.1774 35.3805 66.1143 35.2401 65.7226C34.6543 64.0858 33.5034 62.9872 31.8729 62.3639C31.7708 62.3176 31.6811 62.2482 31.6109 62.1613C31.5407 62.0743 31.492 61.9722 31.4687 61.8631C31.4361 58.5691 31.443 55.2768 31.443 51.9214ZM43.4491 57.0566C43.447 58.5393 43.8873 59.9892 44.7141 61.2229C45.5409 62.4567 46.7172 63.4188 48.094 63.9876C49.4708 64.5564 50.9864 64.7063 52.4489 64.4183C53.9114 64.1302 55.2551 63.4173 56.31 62.3696C57.365 61.322 58.0837 59.9867 58.3753 58.5327C58.6669 57.0787 58.5183 55.5713 57.9482 54.2013C57.3782 52.8314 56.4123 51.6603 55.1728 50.8364C53.9333 50.0125 52.4759 49.5727 50.985 49.5727C48.9881 49.5727 47.0729 50.3609 45.6599 51.7641C44.247 53.1673 43.4518 55.0708 43.4491 57.0566Z" fill="#163C66"/>
<path d="M43.4493 57.0564C43.4544 55.5769 43.8997 54.132 44.7292 52.9038C45.5587 51.6756 46.7352 50.719 48.1104 50.1546C49.4857 49.5902 50.9982 49.4433 52.4573 49.7323C53.9164 50.0213 55.2568 50.7333 56.3096 51.7787C57.3625 52.824 58.0806 54.1559 58.3735 55.6064C58.6665 57.057 58.5211 58.5613 57.9558 59.9298C57.3904 61.2984 56.4304 62.4699 55.1966 63.2967C53.9629 64.1235 52.5106 64.5687 51.0229 64.5761C50.0279 64.581 49.0418 64.39 48.1215 64.014C47.2011 63.638 46.3648 63.0845 45.6607 62.3854C44.9566 61.6863 44.3986 60.8555 44.0191 59.9408C43.6395 59.0262 43.4459 58.0458 43.4493 57.0564ZM50.9852 61.8339C51.616 61.8344 52.2406 61.7111 52.8234 61.4711C53.4062 61.2311 53.9356 60.8791 54.3814 60.4353C54.8272 59.9915 55.1806 59.4646 55.4213 58.8848C55.662 58.305 55.7853 57.6837 55.7842 57.0564C55.7842 55.7898 55.2782 54.575 54.3776 53.6794C53.477 52.7837 52.2554 52.2806 50.9818 52.2806C49.7081 52.2806 48.4866 52.7837 47.5859 53.6794C46.6853 54.575 46.1793 55.7898 46.1793 57.0564C46.1736 57.6854 46.2938 58.3092 46.5329 58.8916C46.7721 59.4739 47.1253 60.0032 47.5721 60.4484C48.0189 60.8937 48.5503 61.2461 49.1354 61.4851C49.7205 61.7242 50.3475 61.845 50.98 61.8407L50.9852 61.8339Z" fill="white"/>
<path d="M50.9802 61.8408C49.7084 61.8462 48.4864 61.3489 47.5832 60.4584C46.68 59.5679 46.1696 58.357 46.1641 57.0922C46.1587 55.8274 46.6587 54.6122 47.5542 53.714C48.4497 52.8158 49.6673 52.3082 50.9391 52.3027C52.2163 52.3004 53.4425 52.8006 54.3503 53.694C55.258 54.5875 55.7735 55.8017 55.7844 57.0718C55.7844 57.6987 55.6601 58.3196 55.4185 58.8987C55.177 59.4779 54.823 60.004 54.3768 60.447C53.9306 60.8899 53.4009 61.241 52.8181 61.4802C52.2353 61.7194 51.6107 61.8419 50.9802 61.8408Z" fill="#163C66"/>
</g>
<defs>
<clipPath id="clip0_28_1094">
<rect width="65.5385" height="48" fill="white" transform="translate(24 25.0361)"/>
</clipPath>
</defs>
</svg>
