<svg width="114" height="98" viewBox="0 0 114 98" fill="none" xmlns="http://www.w3.org/2000/svg">
<rect x="52" y="19" width="60" height="60" fill="#F0F2F5"/>
<path d="M29.4952 96.0449L84.5048 96.0449L112 48.5418L84.5048 1.04492L29.4952 1.04492L2 48.5418L29.4952 96.0449Z" fill="white" stroke="#E1E5EB" stroke-width="2"/>
<g clip-path="url(#clip0_28_1116)">
<path d="M25 47.2934C25.1002 47.0713 25.1904 46.8442 25.3006 46.6255C25.89 45.4733 26.8217 44.8338 28.1292 44.7887C28.6903 44.7703 29.2546 44.8088 29.8157 44.7787C30.9094 44.7169 31.8762 44.9874 32.7262 45.8574C32.8263 45.6002 32.9132 45.4049 32.98 45.2045C33.5611 43.4696 34.1288 41.7296 34.7199 39.9981C35.5231 37.6604 37.3799 36.2644 39.8428 36.2611C51.2776 36.2444 62.7124 36.2444 74.1471 36.2611C76.6184 36.2611 78.4652 37.6437 79.2734 39.9947C79.8595 41.7046 80.4222 43.4245 80.9967 45.1394C81.0685 45.3531 81.1486 45.5635 81.2538 45.8557C82.7566 44.3045 84.6201 44.7336 86.3567 44.8538C87.9731 44.9724 89.0952 46.5687 88.9883 48.1934C88.9303 48.9801 88.5837 49.7177 88.0151 50.2644C87.4465 50.8112 86.6959 51.1286 85.9075 51.1557C85.3682 51.1724 84.8255 51.1557 84.1826 51.1557C84.3296 51.3393 84.4114 51.4662 84.5166 51.5731C85.6487 52.7086 86.7775 53.849 87.9196 54.9728C88.2765 55.313 88.5572 55.7248 88.7434 56.1813C88.9296 56.6377 89.0171 57.1284 89 57.6211C88.9878 62.1618 88.9878 66.702 89 71.2417C89 72.6159 88.4172 73.6295 87.2167 74.3107C87.1243 74.3736 87.0467 74.4557 86.989 74.5514C86.9314 74.6471 86.8951 74.7541 86.8827 74.8651C86.8493 75.8219 86.8827 76.7804 86.866 77.7388C86.846 79.6758 85.4867 81.0334 83.5464 81.0417C81.1297 81.0517 78.7135 81.0517 76.2978 81.0417C74.3626 81.0334 73.0134 79.6658 73 77.7238C72.9916 76.7219 73 75.7317 73 74.6948H40.9983C40.9983 75.6683 40.9983 76.6201 40.9983 77.5719C40.9983 79.7175 39.6758 81.0417 37.5368 81.045C35.1991 81.045 32.8664 81.045 30.5387 81.045C28.4815 81.045 27.1407 79.6992 27.1307 77.6437C27.1307 76.7269 27.1407 75.8069 27.1206 74.8935C27.1206 74.7265 27.0405 74.4427 26.9169 74.3926C25.8917 73.92 25.359 73.0567 25 72.0548V56.7862C25.2655 55.8561 25.8583 55.1565 26.5462 54.5086C27.2693 53.8257 27.9572 53.1043 28.6619 52.4013C29.0376 52.029 29.4183 51.6616 29.9326 51.1607C29.1795 51.1607 28.6251 51.1907 28.0774 51.1607C26.4076 51.0521 25.4709 50.0653 25 48.5408V47.2934ZM56.9666 72.5174C66.4466 72.5174 75.9249 72.5174 85.4016 72.5174C86.512 72.5174 86.8643 72.1651 86.866 71.063C86.866 66.6263 86.866 62.1897 86.8743 57.753C86.8825 57.4947 86.835 57.2377 86.7351 56.9994C86.6351 56.7612 86.485 56.5472 86.2949 56.3721C84.6769 54.7791 83.0889 53.1561 81.4625 51.5731C81.2144 51.3429 80.8937 51.2065 80.5558 51.1874C64.8497 51.1696 49.1436 51.1696 33.4375 51.1874C33.0997 51.2064 32.7794 51.3435 32.5325 51.5748C30.9211 53.1444 29.3498 54.7474 27.7435 56.3287C27.5375 56.5164 27.3749 56.7467 27.2671 57.0037C27.1592 57.2606 27.1087 57.538 27.119 57.8165C27.1373 62.1696 27.129 66.5228 27.129 70.8776C27.129 72.2385 27.4095 72.5157 28.7838 72.5157C38.178 72.5191 47.5723 72.5196 56.9666 72.5174ZM80.0098 49.0166C79.9597 48.8263 79.928 48.666 79.8779 48.5157C79.0163 45.9309 78.1597 43.3393 77.288 40.7645C76.7487 39.1648 75.6934 38.3934 74.0219 38.3934C62.6673 38.3934 51.3127 38.3934 39.958 38.3934C38.3183 38.3934 37.253 39.1698 36.7287 40.7311C35.8526 43.3327 34.9832 45.9364 34.1204 48.5424C34.072 48.691 34.042 48.8463 33.9969 49.0233L80.0098 49.0166ZM29.2663 74.6681C29.2663 75.7835 29.2413 76.8388 29.2764 77.8958C29.2777 78.0327 29.3068 78.1679 29.3619 78.2932C29.4169 78.4185 29.4968 78.5314 29.5966 78.625C29.6965 78.7187 29.8143 78.7911 29.9429 78.838C30.0716 78.8848 30.2083 78.9051 30.345 78.8977C32.823 78.9144 35.2999 78.9144 37.7756 78.8977C38.345 78.8977 38.7925 78.5754 38.8259 78.0227C38.8927 76.9123 38.846 75.7952 38.846 74.6631L29.2663 74.6681ZM75.1273 74.6798C75.1273 75.7685 75.1106 76.7871 75.1273 77.804C75.1423 78.4719 75.5615 78.8993 76.2361 78.9027C78.6918 78.9194 81.1475 78.9194 83.6032 78.9027C84.226 78.9027 84.6836 78.5186 84.7053 77.9325C84.747 76.8589 84.717 75.7818 84.717 74.6781L75.1273 74.6798ZM31.3786 49.0333C31.3786 48.6376 31.3953 48.2886 31.3786 47.943C31.3795 47.8074 31.3533 47.673 31.3014 47.5477C31.2496 47.4224 31.1731 47.3088 31.0766 47.2136C30.9801 47.1183 30.8655 47.0433 30.7396 46.9931C30.6136 46.9429 30.4789 46.9184 30.3434 46.921C29.6153 46.8993 28.8856 46.896 28.1576 46.921C27.8838 46.9289 27.6239 47.0432 27.4331 47.2396C27.2423 47.436 27.1356 47.6992 27.1357 47.973C27.132 48.2373 27.2296 48.493 27.4084 48.6877C27.5873 48.8824 27.8338 49.0013 28.0975 49.02C29.1745 49.0601 30.2482 49.0333 31.3853 49.0333H31.3786ZM82.5997 49.0417C83.7101 49.0417 84.7287 49.055 85.7456 49.0417C85.8866 49.047 86.0273 49.0244 86.1596 48.9751C86.2918 48.9257 86.413 48.8507 86.5161 48.7543C86.6191 48.6579 86.7021 48.542 86.7602 48.4134C86.8182 48.2847 86.8502 48.1458 86.8543 48.0047C86.8677 47.407 86.3985 46.9394 85.7289 46.9227C85.0593 46.906 84.393 46.9077 83.7251 46.9227C83.0038 46.9394 82.6214 47.3285 82.5947 48.0498C82.5963 48.3521 82.608 48.661 82.608 49.0417H82.5997Z" fill="white"/>
<path d="M49.1237 17.0449C50.1106 17.4373 50.9755 17.9667 51.413 19.0086C51.4514 19.0988 51.6485 19.1539 51.777 19.1756C52.0266 19.194 52.2772 19.194 52.5268 19.1756C53.6823 19.1121 54.6775 19.4778 55.4122 20.3728C56.0233 21.1192 56.748 21.333 57.7048 21.328C63.474 21.2879 69.2448 21.3146 75.0139 21.2996C75.7672 21.2695 76.5064 21.51 77.0979 21.9775C77.8643 22.587 78.6641 23.1464 79.4356 23.7441C80.7914 24.7761 80.8182 26.3323 79.4857 27.3693C78.6157 28.0472 77.7457 28.7335 76.8273 29.3396C76.4316 29.6018 75.9106 29.6736 75.4464 29.8306C75.4048 29.8348 75.3628 29.8348 75.3212 29.8306C73.6096 29.9441 71.9432 29.9307 70.9079 28.0122C69.9177 29.4098 68.7489 29.9024 67.1525 29.889C65.5562 29.8756 64.3506 29.4749 63.3671 27.9921C63.0114 28.4229 62.7443 28.7686 62.4537 29.0925C62.2316 29.3424 61.9562 29.5392 61.6478 29.6684C61.3394 29.7976 61.006 29.8559 60.672 29.8389C59.5032 29.8256 58.3343 29.8389 57.1655 29.8306C56.6328 29.8306 56.1786 29.9491 55.8296 30.3766C54.8378 31.6156 53.552 32.1432 51.9774 31.9712C51.6234 31.9328 51.4264 32.0631 51.2527 32.3937C50.6683 33.4974 49.7132 34.0902 48.4708 34.1002C45.2014 34.1253 41.9302 34.1153 38.6608 34.1002C38.2218 34.1014 37.7875 34.0115 37.3851 33.8361C36.9827 33.6608 36.6211 33.4039 36.3231 33.0817C35.7403 32.4739 35.1325 31.8744 34.518 31.2749C34.1943 30.963 33.9384 30.5879 33.766 30.1728C33.5936 29.7576 33.5086 29.3115 33.5161 28.8621C33.5161 26.6746 33.5161 24.4878 33.5161 22.3014C33.5083 21.8513 33.5932 21.4043 33.7655 20.9883C33.9379 20.5723 34.194 20.1963 34.518 19.8836C35.1375 19.2658 35.7186 18.6028 36.3848 18.0468C36.8657 17.6444 37.4585 17.3789 38.0012 17.0449H49.1237ZM49.5211 25.6076C49.5211 23.9195 49.5211 22.233 49.5211 20.5465C49.5211 19.5179 49.1671 19.1756 48.1218 19.1756C45.7691 19.1756 43.4013 19.3292 41.0653 19.1288C38.9597 18.9468 37.3917 19.5713 36.1811 21.2395C36.1561 21.2728 36.1093 21.2929 36.0943 21.328C35.9473 21.6819 35.6835 22.0326 35.6768 22.3899C35.6384 24.5123 35.6351 26.6379 35.6768 28.7602C35.715 29.1652 35.8797 29.5479 36.1477 29.8539C36.6424 30.4452 37.1883 30.9917 37.7791 31.487C38.085 31.7542 38.4682 31.9168 38.8728 31.9512C41.9954 31.9879 45.1195 31.9779 48.2437 31.9696C49.1671 31.9696 49.5161 31.5989 49.5195 30.6671C49.5245 28.9806 49.5211 27.2941 49.5211 25.6076ZM51.6919 29.7671C52.7455 29.9792 53.5871 29.8155 54.26 28.9673C55.0281 28.0021 56.0851 27.6465 57.3074 27.6949C58.1423 27.7266 58.9772 27.6498 59.8121 27.7149C60.5652 27.775 61.0845 27.5179 61.6005 26.9735C62.8511 25.6527 63.9532 25.6811 65.2423 26.9619C65.4911 27.209 65.7582 27.6298 66.0187 27.6398C67.064 27.6498 68.2195 28.0973 69.0528 26.9719C69.2849 26.6332 69.6071 26.3663 69.9831 26.2013C70.3591 26.0364 70.7737 25.9799 71.1801 26.0385C71.9966 26.1403 72.4775 26.7314 73.0085 27.2574C73.461 27.7049 75.1575 27.9253 75.6802 27.5546C76.5618 26.9335 77.4118 26.2689 78.3368 25.5742C77.6422 25.0499 76.9726 24.5957 76.3631 24.0714C75.7937 23.5805 75.1943 23.4035 74.4345 23.4152C68.7706 23.4453 63.1049 23.4069 57.441 23.4503C56.0918 23.4603 54.968 23.108 54.1298 22.056C53.4619 21.2211 52.637 21.2211 51.6969 21.358L51.6919 29.7671Z" fill="white"/>
<path d="M56.9661 72.5172C47.5718 72.5172 38.1776 72.5172 28.7833 72.5172C27.409 72.5172 27.1285 72.24 27.1285 70.8791C27.1285 66.5243 27.1369 62.1711 27.1185 57.818C27.1082 57.5395 27.1587 57.2621 27.2666 57.0051C27.3744 56.7482 27.537 56.5179 27.743 56.3302C29.3493 54.7572 30.9156 53.1459 32.532 51.5763C32.7789 51.345 33.0992 51.2079 33.437 51.1889C49.1431 51.1688 64.8492 51.1688 80.5553 51.1889C80.8933 51.208 81.2139 51.3444 81.4621 51.5746C83.0884 53.1575 84.6764 54.7806 86.2944 56.3736C86.4845 56.5487 86.6346 56.7626 86.7346 57.0009C86.8346 57.2392 86.8821 57.4962 86.8739 57.7545C86.8588 62.1912 86.8655 66.6278 86.8655 71.0645C86.8655 72.1665 86.5115 72.5188 85.4011 72.5188C75.9233 72.52 66.445 72.5194 56.9661 72.5172ZM57.058 57.5641C53.2475 57.5641 49.4381 57.5641 45.6299 57.5641C44.4727 57.5641 43.6261 58.1302 43.2738 59.077C42.9215 60.0238 43.2103 60.9856 44.1087 61.7403C45.159 62.627 46.1826 63.547 47.2813 64.3585C47.7539 64.7075 48.4001 65.0031 48.9695 65.0081C54.3195 65.0571 59.669 65.0599 65.0179 65.0164C65.5551 65.0036 66.0759 64.829 66.5124 64.5155C67.7397 63.5888 68.9119 62.5869 70.0707 61.5717C70.8305 60.9037 71.0442 60.0388 70.7102 59.067C70.3763 58.0951 69.503 57.5641 68.294 57.5541C64.5492 57.5586 60.8044 57.5619 57.0596 57.5641H57.058ZM78.3746 65.0415C79.7271 65.0415 81.0813 65.0415 82.4355 65.0415C83.8499 65.0331 84.7215 64.1548 84.7332 62.7288C84.7332 61.7921 84.7332 60.8553 84.7332 59.9169C84.7215 58.4608 83.8549 57.5792 82.3955 57.5692C80.916 57.5575 79.4366 57.5692 77.9571 57.5692C77.2647 57.5477 76.5893 57.7859 76.0636 58.2371C74.9983 59.1404 73.9146 60.0171 72.8459 60.9087C71.9976 61.6217 71.7205 62.5902 72.0711 63.537C72.4218 64.4838 73.24 65.0298 74.3654 65.0398C75.7079 65.0465 77.0404 65.0415 78.3746 65.0415ZM35.566 65.0415C36.9402 65.0415 38.3162 65.0515 39.6904 65.0415C40.7541 65.0331 41.5756 64.4637 41.9162 63.5387C42.2569 62.6136 41.9914 61.6401 41.1799 60.9522C40.0678 60.0087 38.9674 59.0469 37.7985 58.1803C37.3316 57.8415 36.7792 57.6402 36.2039 57.5992C34.6242 57.5241 33.0313 57.5525 31.455 57.5792C30.1475 57.6009 29.2842 58.4976 29.2625 59.8067C29.2475 60.7852 29.2525 61.7654 29.2625 62.7439C29.2742 64.1648 30.1492 65.0382 31.5685 65.0465C32.8993 65.0465 34.2335 65.0415 35.566 65.0398V65.0415ZM57.0596 68.2492H51.0634C49.8361 68.2492 48.6071 68.2375 47.3781 68.2642C47.2472 68.2591 47.1165 68.2801 46.9937 68.326C46.8709 68.372 46.7585 68.4419 46.6631 68.5317C46.5677 68.6216 46.4911 68.7296 46.4378 68.8493C46.3845 68.9691 46.3557 69.0983 46.3529 69.2293C46.3398 69.3645 46.3534 69.501 46.3931 69.6309C46.4327 69.7609 46.4976 69.8817 46.584 69.9865C46.6703 70.0914 46.7765 70.1781 46.8965 70.2419C47.0164 70.3057 47.1478 70.3452 47.283 70.3581C47.4896 70.3832 47.6979 70.3916 47.9058 70.3832H66.0849C66.3132 70.3922 66.5419 70.3793 66.7678 70.3448C66.9018 70.3256 67.0307 70.28 67.147 70.2108C67.2633 70.1415 67.3648 70.0499 67.4455 69.9413C67.5262 69.8326 67.5846 69.709 67.6174 69.5776C67.6501 69.4463 67.6565 69.3097 67.6361 69.1759C67.5677 68.5798 67.1452 68.2609 66.3688 68.2592C63.2663 68.2481 60.1632 68.2447 57.0596 68.2492ZM35.1402 68.2492C33.9563 68.2492 32.7708 68.2492 31.5869 68.2492C30.8037 68.2492 30.3713 68.6249 30.3512 69.2627C30.3295 69.9307 30.7804 70.3715 31.5652 70.3765C33.9352 70.3876 36.3046 70.3876 38.6735 70.3765C39.4633 70.3765 39.9208 69.9457 39.9108 69.2844C39.9008 68.6232 39.4616 68.2575 38.6935 68.2492C37.5113 68.2425 36.3258 68.2508 35.1419 68.2492H35.1402ZM78.8288 70.3848C80.0544 70.3848 81.2817 70.4032 82.5023 70.3848C83.2137 70.3715 83.6345 69.9423 83.6345 69.3195C83.6345 68.6967 83.2337 68.2759 82.5658 68.2709C80.0934 68.2542 77.6204 68.2542 75.1469 68.2709C74.5057 68.2709 74.1033 68.6833 74.0749 69.2561C74.0541 69.5184 74.1343 69.7788 74.2991 69.984C74.4639 70.1891 74.7009 70.3236 74.9615 70.3598C75.146 70.3886 75.3327 70.3998 75.5192 70.3932C76.628 70.3865 77.7284 70.3848 78.8305 70.3848H78.8288Z" fill="#163C66"/>
<path d="M80.0031 49.0166H33.9951C34.0402 48.8397 34.0703 48.6827 34.1187 48.5357C34.9848 45.9309 35.8542 43.3271 36.7269 40.7244C37.2512 39.1665 38.3166 38.3867 39.9563 38.3867C51.3109 38.3867 62.6655 38.3867 74.0202 38.3867C75.69 38.3867 76.7469 39.1582 77.2863 40.7578C78.1579 43.3393 79.0145 45.9242 79.8761 48.509C79.9212 48.666 79.953 48.8263 80.0031 49.0166Z" fill="#163C66"/>
<path d="M29.2665 74.668H38.8461C38.8461 75.8001 38.8929 76.9172 38.8261 78.0276C38.7927 78.5803 38.3452 78.9009 37.7758 78.9026C35.2989 78.9137 32.822 78.9137 30.3452 78.9026C30.2085 78.91 30.0717 78.8897 29.9431 78.8429C29.8145 78.796 29.6967 78.7236 29.5968 78.63C29.4969 78.5363 29.4171 78.4234 29.362 78.2981C29.307 78.1728 29.2779 78.0376 29.2765 77.9007C29.2414 76.8404 29.2665 75.7834 29.2665 74.668Z" fill="#163C66"/>
<path d="M75.1269 74.6797H84.7232C84.7232 75.7834 84.7533 76.8604 84.7115 77.9341C84.6898 78.5202 84.2323 78.9009 83.6095 78.9043C81.1604 78.9176 78.7047 78.9176 76.2423 78.9043C75.5744 78.9043 75.1486 78.4768 75.1335 77.8056C75.1102 76.787 75.1269 75.7684 75.1269 74.6797Z" fill="#163C66"/>
<path d="M31.3852 49.0333C30.2481 49.0333 29.171 49.06 28.0957 49.0233C27.832 49.0045 27.5855 48.8857 27.4067 48.691C27.2278 48.4963 27.1302 48.2406 27.1339 47.9763C27.1338 47.7025 27.2405 47.4393 27.4313 47.2429C27.6221 47.0465 27.882 46.9322 28.1558 46.9244C28.8838 46.896 29.6135 46.8993 30.3416 46.9244C30.4767 46.921 30.6111 46.9447 30.737 46.994C30.8629 47.0433 30.9776 47.1173 31.0745 47.2115C31.1714 47.3058 31.2485 47.4184 31.3013 47.5429C31.3541 47.6673 31.3814 47.8011 31.3819 47.9362C31.4019 48.2886 31.3852 48.6376 31.3852 49.0333Z" fill="#163C66"/>
<path d="M82.608 49.0413C82.608 48.6606 82.5979 48.3517 82.608 48.0394C82.6347 47.3181 83.0171 46.929 83.7384 46.9123C84.4063 46.8973 85.0743 46.8956 85.7422 46.9123C86.4101 46.929 86.881 47.3965 86.8676 47.9943C86.8635 48.1354 86.8315 48.2743 86.7735 48.4029C86.7154 48.5316 86.6325 48.6475 86.5294 48.7439C86.4263 48.8403 86.3051 48.9153 86.1729 48.9647C86.0406 49.014 85.8999 49.0366 85.7589 49.0313C84.7353 49.0546 83.7167 49.0413 82.608 49.0413Z" fill="#163C66"/>
<path d="M49.5214 25.608C49.5214 27.2945 49.5214 28.981 49.5214 30.6675C49.5214 31.5992 49.1691 31.9666 48.2457 31.9699C45.1215 31.9783 41.9973 31.9883 38.8748 31.9515C38.4701 31.9171 38.087 31.7545 37.7811 31.4873C37.1903 30.992 36.6444 30.4455 36.1497 29.8543C35.8817 29.5482 35.7169 29.1656 35.6788 28.7606C35.6354 26.6382 35.6387 24.5126 35.6788 22.3903C35.6788 22.0329 35.9493 21.6823 36.0962 21.3283C36.1113 21.2932 36.158 21.2732 36.1831 21.2398C37.3953 19.57 38.9616 18.9472 41.0672 19.1292C43.4049 19.3295 45.771 19.1726 48.1238 19.1759C49.1691 19.1759 49.5214 19.5182 49.5231 20.5468C49.5247 22.2333 49.5214 23.9198 49.5214 25.608ZM37.7927 25.5946C37.7927 26.2625 37.7777 26.9305 37.7927 27.59C37.8278 28.9643 38.661 29.8025 40.0186 29.8326C40.7049 29.8476 41.3912 29.8509 42.0774 29.8326C43.2563 29.7925 44.1196 29.0394 44.1714 27.8672C44.2398 26.3527 44.2382 24.8315 44.1714 23.317C44.123 22.1281 43.2263 21.3467 42.034 21.3133C41.3895 21.2966 40.7449 21.3049 40.1004 21.3133C38.6928 21.3199 37.8245 22.1732 37.7944 23.6009C37.7794 24.2655 37.7911 24.93 37.7927 25.5946Z" fill="#163C66"/>
<path d="M51.6836 29.7668V21.361C52.6237 21.2174 53.4569 21.2324 54.1165 22.059C54.9514 23.111 56.0785 23.4633 57.4277 23.4533C63.0917 23.4098 68.7573 23.4533 74.4212 23.4182C75.1776 23.4182 75.7804 23.5852 76.3498 24.0744C76.9593 24.6004 77.6289 25.0546 78.3235 25.5772C77.3985 26.2719 76.5485 26.9365 75.6669 27.5576C75.1426 27.9283 73.4461 27.7079 72.9952 27.2604C72.4642 26.7344 71.9833 26.1433 71.1668 26.0414C70.7604 25.9829 70.3458 26.0394 69.9698 26.2043C69.5939 26.3693 69.2716 26.6362 69.0395 26.9749C68.2046 28.0953 67.0507 27.6428 66.0054 27.6428C65.745 27.6428 65.4778 27.212 65.229 26.9648C63.9399 25.6841 62.8378 25.6557 61.5872 26.9765C61.0712 27.5209 60.5519 27.778 59.7988 27.7179C58.9639 27.6528 58.129 27.7296 57.2941 27.6979C56.0718 27.6495 55.0148 28.0051 54.2467 28.9703C53.5788 29.8152 52.7372 29.9788 51.6836 29.7668Z" fill="#163C66"/>
<path d="M57.0597 57.5644C60.8045 57.5644 64.551 57.5644 68.2991 57.5644C69.5081 57.5644 70.3797 58.1071 70.7153 59.0772C71.051 60.0474 70.8356 60.914 70.0758 61.582C68.917 62.5972 67.7381 63.5991 66.5175 64.5258C66.081 64.8393 65.5602 65.0139 65.023 65.0268C59.6796 65.0613 54.3302 65.0585 48.9746 65.0184C48.4052 65.0184 47.7589 64.7178 47.2864 64.3689C46.181 63.5573 45.1574 62.6373 44.1138 61.7506C43.2188 60.9959 42.9316 60.0524 43.2789 59.0873C43.6262 58.1221 44.4778 57.5761 45.635 57.5744C49.441 57.5633 53.2492 57.56 57.0597 57.5644ZM45.3277 59.7585L45.2643 59.8938C45.4112 60.0324 45.5498 60.1776 45.7034 60.3062C46.5667 61.0276 47.4467 61.7272 48.2899 62.477C48.4548 62.6297 48.6483 62.7483 48.8592 62.8259C49.0702 62.9036 49.2943 62.9388 49.5189 62.9295C54.2661 62.9111 59.0151 62.8894 63.7623 62.9428C64.7642 62.9529 65.554 62.7324 66.267 62.0228C66.9149 61.3799 67.6579 60.8322 68.3709 60.2578C68.5334 60.1597 68.708 60.0834 68.8902 60.0307L68.6865 59.7652L45.3277 59.7585Z" fill="white"/>
<path d="M78.3755 65.0413C77.0397 65.0413 75.7038 65.0413 74.368 65.0413C73.2475 65.0413 72.426 64.4903 72.0737 63.5385C71.7214 62.5867 72.0002 61.6233 72.8485 60.9103C73.9171 60.0119 75.0008 59.1353 76.0662 58.2386C76.5919 57.7874 77.2673 57.5492 77.9597 57.5707C79.4392 57.5707 80.9186 57.5707 82.398 57.5707C83.8508 57.5807 84.7174 58.4623 84.7358 59.9184C84.7358 60.8568 84.7358 61.7936 84.7358 62.7303C84.7241 64.1564 83.8524 65.0347 82.4381 65.043C81.0822 65.0464 79.728 65.0413 78.3755 65.0413ZM82.5734 59.698C80.9453 59.698 79.369 59.698 77.7944 59.7114C77.6274 59.7114 77.4604 59.8616 77.3202 59.9769C76.3395 60.7817 75.3637 61.5921 74.393 62.4081C74.2526 62.553 74.1231 62.7082 74.0056 62.8723H82.5734V59.698Z" fill="white"/>
<path d="M35.5659 65.0415C34.2301 65.0415 32.8942 65.0415 31.5584 65.0415C30.139 65.0331 29.2641 64.1598 29.2524 62.7388C29.244 61.7603 29.239 60.7801 29.2524 59.8016C29.2708 58.4925 30.1374 57.5958 31.4448 57.5741C33.0278 57.5474 34.6174 57.519 36.1937 57.5942C36.7691 57.6352 37.3215 57.8365 37.7884 58.1753C38.9573 59.0419 40.0577 60.0037 41.1697 60.9471C41.9813 61.6351 42.2451 62.6169 41.9061 63.5336C41.5672 64.4504 40.7373 65.0365 39.6803 65.0365C38.3161 65.0498 36.9401 65.0398 35.5659 65.0415ZM31.4248 62.8474H39.874L40.0543 62.6036C39.8649 62.5239 39.6838 62.426 39.5133 62.3114C38.8955 61.8104 38.2443 61.3529 37.6966 60.7885C37.3148 60.368 36.8361 60.0472 36.3021 59.8539C35.7681 59.6607 35.1949 59.6009 34.6325 59.6798C33.7475 59.7733 32.8441 59.6948 31.9508 59.6998C31.7721 59.6998 31.5951 59.7298 31.4248 59.7449V62.8474Z" fill="white"/>
<path d="M57.0602 68.2492C60.1627 68.2492 63.2652 68.2492 66.3677 68.2492C67.1441 68.2492 67.5666 68.5698 67.635 69.1659C67.6554 69.2998 67.649 69.4363 67.6163 69.5677C67.5836 69.699 67.5252 69.8226 67.4444 69.9313C67.3637 70.0399 67.2623 70.1316 67.1459 70.2008C67.0296 70.2701 66.9008 70.3156 66.7667 70.3348C66.5408 70.3694 66.3122 70.3822 66.0838 70.3732H47.9064C47.6984 70.3816 47.4902 70.3732 47.2835 70.3482C47.1483 70.3352 47.017 70.2957 46.8971 70.2319C46.7771 70.1682 46.6709 70.0814 46.5845 69.9765C46.4982 69.8717 46.4333 69.7509 46.3936 69.621C46.354 69.491 46.3403 69.3546 46.3535 69.2194C46.3563 69.0883 46.3851 68.9591 46.4384 68.8394C46.4916 68.7196 46.5682 68.6116 46.6637 68.5218C46.7591 68.4319 46.8715 68.362 46.9943 68.316C47.1171 68.2701 47.2477 68.2491 47.3787 68.2542C48.6077 68.2275 49.8367 68.2409 51.064 68.2392L57.0602 68.2492Z" fill="white"/>
<path d="M35.1423 68.2512C36.3262 68.2512 37.5117 68.2428 38.6956 68.2512C39.4637 68.2595 39.9029 68.6469 39.9129 69.2865C39.9229 69.926 39.4654 70.3752 38.6756 70.3785C36.3056 70.3896 33.9361 70.3896 31.5672 70.3785C30.7824 70.3785 30.3316 69.9327 30.3533 69.2647C30.3733 68.6269 30.8058 68.2629 31.5889 68.2512C32.7728 68.2428 33.9584 68.2495 35.1423 68.2512Z" fill="white"/>
<path d="M78.8303 70.385C77.7282 70.385 76.6278 70.385 75.5257 70.385C75.3392 70.3915 75.1524 70.3804 74.968 70.3516C74.7074 70.3154 74.4704 70.1809 74.3056 69.9757C74.1407 69.7706 74.0605 69.5102 74.0814 69.2478C74.1097 68.6751 74.5122 68.266 75.1534 68.2627C77.6269 68.2471 80.0999 68.2471 82.5723 68.2627C83.2402 68.2627 83.6426 68.7018 83.6409 69.3113C83.6393 69.9208 83.2202 70.3633 82.5088 70.3766C81.2832 70.4017 80.0559 70.3766 78.8353 70.3766L78.8303 70.385Z" fill="white"/>
<path d="M37.793 25.5945C37.793 24.9266 37.7797 24.2587 37.793 23.6008C37.8248 22.1731 38.6931 21.3198 40.1057 21.3065C40.7503 21.3065 41.3948 21.2915 42.0393 21.3065C43.2316 21.3399 44.1283 22.1213 44.1767 23.3102C44.2401 24.8247 44.2418 26.3459 44.1767 27.8604C44.1249 29.0293 43.2616 29.7857 42.0828 29.8258C41.3965 29.8492 40.7102 29.8458 40.0239 29.8258C38.6664 29.7957 37.8331 28.9575 37.7981 27.5833C37.778 26.9254 37.793 26.2608 37.793 25.5945ZM42.0327 27.6684V23.4672H39.9738V27.6684H42.0327Z" fill="white"/>
<path d="M45.3277 59.7583H68.6898L68.8935 60.0238C68.7113 60.0765 68.5367 60.1528 68.3742 60.2509C67.6612 60.8253 66.9182 61.373 66.2703 62.0159C65.5539 62.7255 64.7675 62.9459 63.7656 62.9359C59.0184 62.8825 54.2695 62.9042 49.5222 62.9226C49.2977 62.9319 49.0735 62.8967 48.8626 62.819C48.6516 62.7414 48.4582 62.6228 48.2933 62.47C47.4584 61.727 46.57 61.0273 45.7067 60.2993C45.5531 60.1707 45.4145 60.0255 45.2676 59.8869L45.3277 59.7583Z" fill="#163C66"/>
<path d="M82.5736 59.7014V62.874H74.0059C74.1233 62.7099 74.2528 62.5547 74.3932 62.4098C75.3651 61.5938 76.3408 60.7834 77.3204 59.9786C77.4607 59.8633 77.6343 59.7147 77.7946 59.7131C79.3693 59.6947 80.9389 59.7014 82.5736 59.7014Z" fill="#163C66"/>
<path d="M31.4258 62.8474V59.745C31.5928 59.7299 31.7731 59.7015 31.9518 59.6999C32.8451 59.6999 33.7485 59.7733 34.6335 59.6798C35.1952 59.6027 35.7673 59.6639 36.3001 59.858C36.8329 60.052 37.3103 60.3732 37.6909 60.7936C38.2386 61.358 38.8898 61.8222 39.5076 62.3164C39.6781 62.4311 39.8592 62.529 40.0486 62.6087L39.8683 62.8524L31.4258 62.8474Z" fill="#163C66"/>
<path d="M42.0315 27.668H39.9727V23.4668H42.0315V27.668Z" fill="#163C66"/>
</g>
<defs>
<clipPath id="clip0_28_1116">
<rect width="64" height="64" fill="white" transform="translate(25 17.0449)"/>
</clipPath>
</defs>
</svg>
